<svg xmlns="http://www.w3.org/2000/svg" width="467.937" height="366.058" viewBox="0 0 123.808 96.853"><g style="fill:#000;fill-opacity:0;stroke:#000;stroke-width:.1524;stroke-linecap:round;stroke-linejoin:round;stroke-opacity:1"><rect width="2.54" height="5.08" x="77.47" y="80.01" stroke="none" rx="0" style="fill:#ffffc2;fill-opacity:1;stroke:#ffffc2;stroke-width:0;stroke-linecap:round;stroke-linejoin:round;stroke-opacity:1" transform="translate(-67.962 -63.01)"/><rect width="2.54" height="5.08" x="77.47" y="80.01" fill="none" rx="0" style="fill:#840000;fill-opacity:0;stroke:#840000;stroke-width:.254;stroke-linecap:round;stroke-linejoin:round;stroke-opacity:1" transform="translate(-67.962 -63.01)"/><g style="fill:#840000;fill-opacity:0;stroke:#840000;stroke-width:.1524;stroke-linecap:round;stroke-linejoin:round;stroke-opacity:1" transform="translate(-67.962 -63.01)"><circle cx="78.74" cy="83.82" r=".635" fill="none"/><path d="m79.273 83.49-.863.838M79.273 80.95l-.863.838M79.096 83.312l-.864.838M79.096 80.772l-.864.838" style="fill:none;fill-opacity:0;stroke:#840000;stroke-width:.1524;stroke-linecap:round;stroke-linejoin:round;stroke-opacity:1"/><circle cx="78.74" cy="81.28" r=".635" fill="none"/><path fill="none" d="M80.01 81.28h3.81"/></g><g class="stroked-text" style="fill:#a90000;fill-opacity:0;stroke:#a90000;stroke-width:.1524;stroke-linecap:round;stroke-linejoin:round;stroke-opacity:1" transform="translate(-67.962 -63.01)"><path fill="none" d="M82.278 80.862h-.726M81.915 80.862v-1.27M81.915 79.593l-.12.181M81.794 79.774l-.12.12M81.673 79.895l-.12.06"/></g><path fill="none" d="M80.01 83.82h3.81" style="fill:#840000;fill-opacity:0;stroke:#840000;stroke-width:.1524;stroke-linecap:round;stroke-linejoin:round;stroke-opacity:1" transform="translate(-67.962 -63.01)"/><g class="stroked-text" style="fill:#a90000;fill-opacity:0;stroke:#a90000;stroke-width:.1524;stroke-linecap:round;stroke-linejoin:round;stroke-opacity:1" transform="translate(-67.962 -63.01)"><path fill="none" d="m81.552 82.254.06-.061M81.613 82.193l.12-.06M81.734 82.132h.302M82.036 82.132l.12.061M82.157 82.193l.06.06M82.217 82.254l.06.12M82.278 82.374v.121M82.278 82.495l-.06.182M82.217 82.677l-.725.725M81.492 83.403h.786"/></g><g style="fill:#006464;fill-opacity:0;stroke:#006464;stroke-width:.1524;stroke-linecap:round;stroke-linejoin:round;stroke-opacity:1"><g class="stroked-text" transform="translate(-67.962 -63.01)"><path fill="none" d="M78.317 74.24v.907M78.317 75.147l-.06.181M78.256 75.328l-.12.121M78.135 75.45l-.181.06M77.954 75.51h-.121M79.587 75.51h-.726M79.224 75.51v-1.27M79.224 74.24l-.121.181M79.103 74.421l-.121.12M78.982 74.542l-.121.06"/></g><g class="stroked-text" transform="translate(-67.962 -63.01)"><path fill="none" d="m68.278 77.99.181.06M68.46 78.05h.302M68.761 78.05l.121-.06M68.882 77.99l.06-.061M68.943 77.929l.06-.121M69.003 77.808v-.121M69.003 77.687l-.06-.121M68.943 77.566l-.06-.06M68.882 77.505l-.12-.06M68.761 77.445l-.241-.06M68.52 77.384l-.121-.06M68.399 77.324l-.06-.06M68.338 77.263l-.06-.12M68.278 77.142v-.12M68.278 77.021l.06-.12M68.338 76.9l.06-.06M68.399 76.84l.12-.06M68.52 76.78h.302M68.822 76.78l.181.06M70.092 77.99l-.121.06M69.971 78.05h-.242M69.73 78.05l-.122-.06M69.608 77.99l-.06-.061M69.548 77.929l-.06-.121M69.487 77.808v-.363M69.487 77.445l.06-.121M69.548 77.324l.06-.06M69.608 77.263l.121-.06M69.73 77.203h.241M69.971 77.203l.12.06M70.636 78.05v-.847M70.636 77.445l.06-.121M70.697 77.324l.06-.06M70.757 77.263l.121-.06M70.878 77.203H71M71.906 77.99l-.12.06M71.785 78.05h-.242M71.543 78.05l-.12-.06M71.422 77.99l-.06-.122M71.362 77.868v-.484M71.362 77.384l.06-.12M71.422 77.263l.121-.06M71.543 77.203h.242M71.785 77.203l.121.06M71.906 77.263l.06.121M71.967 77.384v.121M71.967 77.505l-.605.121M72.39 77.203l.242.846M72.632 78.05l.242-.605M72.874 77.445l.242.605M73.116 78.05l.242-.847M73.54 78.17h.967M74.628 76.78h.725M74.99 78.05v-1.27M76.26 77.99l-.12.06M76.14 78.05h-.242M75.898 78.05l-.121-.06M75.777 77.99l-.06-.122M75.716 77.868v-.484M75.716 77.384l.06-.12M75.777 77.263l.12-.06M75.898 77.203h.242M76.14 77.203l.12.06M76.26 77.263l.061.121M76.321 77.384v.121M76.321 77.505l-.605.121M76.865 78.05v-.847M76.865 77.445l.06-.121M76.926 77.324l.06-.06M76.986 77.263l.121-.06M77.107 77.203h.121M77.651 78.05v-.847M77.651 77.324l.061-.06M77.712 77.263l.121-.06M77.833 77.203h.181M78.014 77.203l.121.06M78.135 77.263l.06.121M78.196 77.384v.665M78.196 77.384l.06-.12M78.256 77.263l.121-.06M78.377 77.203h.182M78.559 77.203l.12.06M78.68 77.263l.06.121M78.74 77.384v.665M79.345 78.05v-.847M79.345 76.78l-.06.06M79.284 76.84l.06.06M79.345 76.9l.06-.06M79.405 76.84l-.06-.06M79.345 76.78v.12M79.95 77.203v.846M79.95 77.324l.06-.06M80.01 77.263l.121-.06M80.131 77.203h.182M80.313 77.203l.12.06M80.433 77.263l.06.121M80.494 77.384v.665M81.643 78.05v-.666M81.643 77.384l-.06-.12M81.582 77.263l-.12-.06M81.462 77.203h-.242M81.22 77.203l-.121.06M81.643 77.99l-.121.06M81.522 78.05h-.302M81.22 78.05l-.121-.06M81.099 77.99l-.06-.122M81.038 77.868v-.12M81.038 77.747l.06-.12M81.099 77.626l.12-.06M81.22 77.566h.302M81.522 77.566l.12-.06M82.43 78.05l-.122-.06M82.308 77.99l-.06-.122M82.248 77.868V76.78M82.61 78.17h.968M84.122 76.78h.121M84.243 76.78l.121.06M84.364 76.84l.06.06M84.425 76.9l.06.121M84.485 77.021l.06.242M84.546 77.263v.303M84.546 77.566l-.06.242M84.485 77.808l-.06.12M84.425 77.929l-.06.06M84.364 77.99l-.12.06M84.243 78.05h-.12M84.122 78.05l-.12-.06M84.001 77.99l-.06-.061M83.94 77.929l-.06-.121M83.88 77.808l-.06-.242M83.82 77.566v-.303M83.82 77.263l.06-.242M83.88 77.021l.06-.12M83.94 76.9l.061-.06M84.001 76.84l.121-.06M85.755 78.05h-.725M85.392 78.05v-1.27M85.392 76.78l-.12.181M85.271 76.961l-.12.12M85.15 77.082l-.12.06M86.178 78.05l.666-.847M86.178 77.203l.666.846M87.57 76.78h.12M87.69 76.78l.121.06M87.811 76.84l.06.06M87.872 76.9l.06.121M87.932 77.021l.06.242M87.993 77.263v.303M87.993 77.566l-.06.242M87.932 77.808l-.06.12M87.872 77.929l-.06.06M87.811 77.99l-.12.06M87.69 78.05h-.12M87.57 78.05l-.121-.06M87.448 77.99l-.06-.061M87.388 77.929l-.06-.121M87.328 77.808l-.06-.242M87.267 77.566v-.303M87.267 77.263l.06-.242M87.328 77.021l.06-.12M87.388 76.9l.06-.06M87.448 76.84l.121-.06M88.477 76.9l.06-.06M88.537 76.84l.121-.06M88.658 76.78h.302M88.96 76.78l.121.06M89.081 76.84l.06.06M89.142 76.9l.06.121M89.202 77.021v.121M89.202 77.142l-.06.182M89.142 77.324l-.726.726M88.416 78.05h.786"/></g></g></g><g style="fill:#006464;fill-opacity:0;stroke:#006464;stroke-width:.1524;stroke-linecap:round;stroke-linejoin:round;stroke-opacity:1"><rect width="2.54" height="5.08" x="166.37" y="80.01" stroke="none" rx="0" style="fill:#ffffc2;fill-opacity:1;stroke:#ffffc2;stroke-width:0;stroke-linecap:round;stroke-linejoin:round;stroke-opacity:1" transform="translate(-67.962 -63.01)"/><rect width="2.54" height="5.08" x="166.37" y="80.01" fill="none" rx="0" style="fill:#840000;fill-opacity:0;stroke:#840000;stroke-width:.254;stroke-linecap:round;stroke-linejoin:round;stroke-opacity:1" transform="translate(-67.962 -63.01)"/><g style="fill:#840000;fill-opacity:0;stroke:#840000;stroke-width:.1524;stroke-linecap:round;stroke-linejoin:round;stroke-opacity:1" transform="translate(-67.962 -63.01)"><circle cx="167.64" cy="83.82" r=".635" fill="none"/><path d="m167.107 83.49.863.838M167.107 80.95l.863.838M167.284 83.312l.864.838M167.284 80.772l.864.838" style="fill:none;fill-opacity:0;stroke:#840000;stroke-width:.1524;stroke-linecap:round;stroke-linejoin:round;stroke-opacity:1"/><circle cx="167.64" cy="81.28" r=".635" fill="none"/><path fill="none" d="M166.37 81.28h-3.81"/></g><g class="stroked-text" style="fill:#a90000;fill-opacity:0;stroke:#a90000;stroke-width:.1524;stroke-linecap:round;stroke-linejoin:round;stroke-opacity:1" transform="translate(-67.962 -63.01)"><path fill="none" d="M164.828 80.862h-.726M164.465 80.862v-1.27M164.465 79.593l-.12.181M164.344 79.774l-.12.12M164.223 79.895l-.12.06"/></g><path fill="none" d="M166.37 83.82h-3.81" style="fill:#840000;fill-opacity:0;stroke:#840000;stroke-width:.1524;stroke-linecap:round;stroke-linejoin:round;stroke-opacity:1" transform="translate(-67.962 -63.01)"/><g class="stroked-text" style="fill:#a90000;fill-opacity:0;stroke:#a90000;stroke-width:.1524;stroke-linecap:round;stroke-linejoin:round;stroke-opacity:1" transform="translate(-67.962 -63.01)"><path fill="none" d="m164.102 82.254.06-.061M164.163 82.193l.12-.06M164.284 82.132h.302M164.586 82.132l.12.061M164.707 82.193l.06.06M164.767 82.254l.06.12M164.828 82.374v.121M164.828 82.495l-.06.182M164.767 82.677l-.725.725M164.042 83.403h.786"/></g><g style="fill:#006464;fill-opacity:0;stroke:#006464;stroke-width:.1524;stroke-linecap:round;stroke-linejoin:round;stroke-opacity:1"><g class="stroked-text" transform="translate(-67.962 -63.01)"><path fill="none" d="M170.956 80.59v.907M170.956 81.497l-.06.181M170.896 81.678l-.121.121M170.775 81.799l-.181.06M170.594 81.86h-.121M171.44 80.59h.786M172.226 80.59l-.423.483M171.803 81.073h.181M171.984 81.073l.121.06M172.105 81.134l.06.06M172.166 81.194l.06.121M172.226 81.315v.303M172.226 81.618l-.06.12M172.166 81.739l-.06.06M172.105 81.799l-.12.06M171.984 81.86h-.362M171.622 81.86l-.121-.061M171.5 81.799l-.06-.06"/></g><g class="stroked-text" transform="translate(-67.962 -63.01)"><path fill="none" d="m170.533 84.339.182.06M170.714 84.4h.303M171.017 84.4l.12-.061M171.138 84.339l.06-.06M171.198 84.278l.06-.12M171.259 84.157v-.12M171.259 84.037l-.06-.121M171.198 83.916l-.06-.06M171.138 83.855l-.121-.06M171.017 83.795l-.242-.06M170.775 83.734l-.121-.06M170.654 83.674l-.06-.06M170.594 83.613l-.06-.12M170.533 83.492v-.12M170.533 83.371l.06-.12M170.594 83.25l.06-.06M170.654 83.19l.121-.06M170.775 83.13h.302M171.077 83.13l.182.06M172.347 84.339l-.12.06M172.226 84.4h-.241M171.984 84.4l-.12-.061M171.863 84.339l-.06-.06M171.803 84.278l-.06-.12M171.743 84.157v-.362M171.743 83.795l.06-.121M171.803 83.674l.06-.06M171.863 83.613l.121-.06M171.984 83.553h.242M172.226 83.553l.121.06M172.892 84.4v-.847M172.892 83.795l.06-.121M172.952 83.674l.06-.06M173.013 83.613l.12-.06M173.133 83.553h.121M174.162 84.339l-.121.06M174.04 84.4h-.241M173.799 84.4l-.121-.061M173.678 84.339l-.06-.121M173.617 84.218v-.484M173.617 83.734l.06-.12M173.678 83.613l.12-.06M173.799 83.553h.242M174.04 83.553l.122.06M174.162 83.613l.06.121M174.222 83.734v.121M174.222 83.855l-.605.121M174.645 83.553l.242.846M174.887 84.4l.242-.605M175.13 83.795l.241.604M175.371 84.4l.242-.847M175.795 84.52h.967M176.883 83.13h.726M177.246 84.4v-1.27M178.516 84.339l-.121.06M178.395 84.4h-.242M178.153 84.4l-.12-.061M178.032 84.339l-.06-.121M177.972 84.218v-.484M177.972 83.734l.06-.12M178.032 83.613l.121-.06M178.153 83.553h.242M178.395 83.553l.12.06M178.516 83.613l.06.121M178.576 83.734v.121M178.576 83.855l-.604.121M179.12 84.4v-.847M179.12 83.795l.061-.121M179.181 83.674l.06-.06M179.242 83.613l.12-.06M179.363 83.553h.12M179.907 84.4v-.847M179.907 83.674l.06-.06M179.967 83.613l.121-.06M180.088 83.553h.182M180.27 83.553l.12.06M180.39 83.613l.061.121M180.451 83.734v.665M180.451 83.734l.06-.12M180.512 83.613l.12-.06M180.633 83.553h.181M180.814 83.553l.121.06M180.935 83.613l.06.121M180.995 83.734v.665M181.6 84.4v-.847M181.6 83.13l-.06.06M181.54 83.19l.06.06M181.6 83.25l.06-.06M181.66 83.19l-.06-.06M181.6 83.13v.12M182.205 83.553v.846M182.205 83.674l.06-.06M182.266 83.613l.12-.06M182.387 83.553h.18M182.568 83.553l.12.06M182.689 83.613l.06.121M182.75 83.734v.665M183.898 84.4v-.666M183.898 83.734l-.06-.12M183.838 83.613l-.121-.06M183.717 83.553h-.242M183.475 83.553l-.121.06M183.898 84.339l-.12.06M183.777 84.4h-.302M183.475 84.4l-.121-.061M183.354 84.339l-.06-.121M183.294 84.218v-.121M183.294 84.097l.06-.12M183.354 83.976l.121-.06M183.475 83.916h.302M183.777 83.916l.121-.06M184.685 84.4l-.121-.061M184.564 84.339l-.061-.121M184.503 84.218v-1.089M184.866 84.52h.967M186.378 83.13h.12M186.499 83.13l.12.06M186.62 83.19l.06.06M186.68 83.25l.06.121M186.74 83.371l.061.242M186.801 83.613v.303M186.801 83.916l-.06.242M186.74 84.157l-.06.122M186.68 84.278l-.06.061M186.62 84.339l-.121.06M186.499 84.4h-.121M186.378 84.4l-.121-.061M186.257 84.339l-.06-.06M186.196 84.278l-.06-.12M186.136 84.157l-.06-.241M186.075 83.916v-.303M186.075 83.613l.06-.242M186.136 83.371l.06-.12M186.196 83.25l.06-.06M186.257 83.19l.12-.06M188.01 84.4h-.725M187.648 84.4v-1.27M187.648 83.13l-.121.18M187.527 83.31l-.121.122M187.406 83.432l-.121.06M188.434 84.4l.665-.847M188.434 83.553l.665.846M189.825 83.13h.12M189.946 83.13l.12.06M190.067 83.19l.06.06M190.127 83.25l.06.121M190.188 83.371l.06.242M190.248 83.613v.303M190.248 83.916l-.06.242M190.188 84.157l-.06.122M190.127 84.278l-.06.061M190.067 84.339l-.121.06M189.946 84.4h-.121M189.825 84.4l-.121-.061M189.704 84.339l-.06-.06M189.643 84.278l-.06-.12M189.583 84.157l-.06-.241M189.523 83.916v-.303M189.523 83.613l.06-.242M189.583 83.371l.06-.12M189.643 83.25l.06-.06M189.704 83.19l.12-.06M190.732 83.25l.06-.06M190.792 83.19l.121-.06M190.913 83.13h.303M191.216 83.13l.12.06M191.337 83.19l.06.06M191.397 83.25l.06.121M191.458 83.371v.121M191.458 83.492l-.06.182M191.397 83.674l-.725.725M190.672 84.4h.786"/></g></g></g><g style="fill:#006464;fill-opacity:0;stroke:#006464;stroke-width:.1524;stroke-linecap:round;stroke-linejoin:round;stroke-opacity:1"><rect width="2.54" height="5.08" x="177.8" y="129.54" stroke="none" rx="0" style="fill:#ffffc2;fill-opacity:1;stroke:#ffffc2;stroke-width:0;stroke-linecap:round;stroke-linejoin:round;stroke-opacity:1" transform="translate(-67.962 -63.01)"/><rect width="2.54" height="5.08" x="177.8" y="129.54" fill="none" rx="0" style="fill:#840000;fill-opacity:0;stroke:#840000;stroke-width:.254;stroke-linecap:round;stroke-linejoin:round;stroke-opacity:1" transform="translate(-67.962 -63.01)"/><g style="fill:#840000;fill-opacity:0;stroke:#840000;stroke-width:.1524;stroke-linecap:round;stroke-linejoin:round;stroke-opacity:1" transform="translate(-67.962 -63.01)"><circle cx="179.07" cy="133.35" r=".635" fill="none"/><path d="m178.537 133.02.863.838M178.537 130.48l.863.838M178.714 132.842l.864.838M178.714 130.302l.864.838" style="fill:none;fill-opacity:0;stroke:#840000;stroke-width:.1524;stroke-linecap:round;stroke-linejoin:round;stroke-opacity:1"/><circle cx="179.07" cy="130.81" r=".635" fill="none"/><path fill="none" d="M177.8 130.81h-3.81"/></g><g class="stroked-text" style="fill:#a90000;fill-opacity:0;stroke:#a90000;stroke-width:.1524;stroke-linecap:round;stroke-linejoin:round;stroke-opacity:1" transform="translate(-67.962 -63.01)"><path fill="none" d="M176.258 130.393h-.726M175.895 130.393v-1.27M175.895 129.123l-.12.181M175.774 129.304l-.12.12M175.653 129.425l-.12.06"/></g><path fill="none" d="M177.8 133.35h-3.81" style="fill:#840000;fill-opacity:0;stroke:#840000;stroke-width:.1524;stroke-linecap:round;stroke-linejoin:round;stroke-opacity:1" transform="translate(-67.962 -63.01)"/><g class="stroked-text" style="fill:#a90000;fill-opacity:0;stroke:#a90000;stroke-width:.1524;stroke-linecap:round;stroke-linejoin:round;stroke-opacity:1" transform="translate(-67.962 -63.01)"><path fill="none" d="m175.532 131.784.06-.061M175.593 131.723l.12-.06M175.714 131.662h.302M176.016 131.662l.12.061M176.137 131.723l.06.06M176.197 131.784l.06.12M176.258 131.904v.121M176.258 132.025l-.06.182M176.197 132.207l-.725.725M175.472 132.933h.786"/></g><g class="stroked-text" style="fill:#006464;fill-opacity:0;stroke:#006464;stroke-width:.1524;stroke-linecap:round;stroke-linejoin:round;stroke-opacity:1" transform="translate(-67.962 -63.01)"><path fill="none" d="M178.576 127.58v.907M178.576 128.487l-.06.181M178.516 128.668l-.121.121M178.395 128.79l-.181.06M178.214 128.85h-.121M179.12 127.7l.061-.06M179.181 127.64l.121-.06M179.302 127.58h.303M179.605 127.58l.12.06M179.725 127.64l.06.06M179.786 127.7l.06.121M179.846 127.821v.121M179.846 127.942l-.06.182M179.786 128.124l-.726.725M179.06 128.85h.786"/></g></g><g style="fill:#006464;fill-opacity:0;stroke:#006464;stroke-width:.1524;stroke-linecap:round;stroke-linejoin:round;stroke-opacity:1"><g style="fill:#840000;fill-opacity:0;stroke:#840000;stroke-width:.254;stroke-linecap:round;stroke-linejoin:round;stroke-opacity:1"><path d="M111.76 152.146v4.064" style="fill:none;fill-opacity:0;stroke:#840000;stroke-width:.254;stroke-linecap:round;stroke-linejoin:round;stroke-opacity:1" transform="translate(-67.962 -63.01)"/></g><g style="fill:#840000;fill-opacity:1;stroke:#840000;stroke-width:.1524;stroke-linecap:round;stroke-linejoin:round;stroke-opacity:1"><path d="m111.76 151.13.508 1.778h-1.016z" style="fill:#840000;fill-opacity:1;fill-rule:evenodd;stroke:#840000;stroke-width:.1524;stroke-linecap:round;stroke-linejoin:round;stroke-opacity:1" transform="translate(-67.962 -63.01)"/></g></g><g style="fill:#840000;fill-opacity:1;stroke:#840000;stroke-width:.1524;stroke-linecap:round;stroke-linejoin:round;stroke-opacity:1"><g style="fill:#840000;fill-opacity:0;stroke:#840000;stroke-width:.1524;stroke-linecap:round;stroke-linejoin:round;stroke-opacity:1"><path fill="none" d="M41.258 85.554a1.29 1.29 0 0 0 1.27-1.244M41.258 83.014a1.29 1.29 0 0 0 1.27-1.244M41.258 80.474a1.29 1.29 0 0 0 1.27-1.244M41.258 77.934a1.29 1.29 0 0 0 1.27-1.244M42.528 84.31a1.27 1.27 0 0 0-1.27-1.27M42.528 81.77a1.27 1.27 0 0 0-1.27-1.27M42.528 79.23a1.27 1.27 0 0 0-1.27-1.27M42.528 76.69a1.27 1.27 0 0 0-1.27-1.27"/><path d="M111.125 138.43v10.16M112.395 148.59v-10.16" style="fill:none;fill-opacity:0;stroke:#840000;stroke-width:.1524;stroke-linecap:round;stroke-linejoin:round;stroke-opacity:1" transform="translate(-67.962 -63.01)"/><path fill="none" d="M45.093 81.77a1.245 1.245 0 0 0 1.245 1.244M45.093 79.23a1.245 1.245 0 0 0 1.245 1.244M45.093 76.69a1.245 1.245 0 0 0 1.245 1.244M45.118 84.31a1.245 1.245 0 0 0 1.245 1.244M46.338 80.5a1.228 1.228 0 0 0-1.245 1.27M46.338 77.96a1.228 1.228 0 0 0-1.245 1.27M46.338 75.42a1.228 1.228 0 0 0-1.245 1.27M46.363 83.04a1.228 1.228 0 0 0-1.245 1.27M41.258 75.42h-7.62"/></g><g class="stroked-text" style="fill:#a90000;fill-opacity:0;stroke:#a90000;stroke-width:.1524;stroke-linecap:round;stroke-linejoin:round;stroke-opacity:1" transform="translate(-67.962 -63.01)"><path fill="none" d="M105.773 138.012h-.726M105.41 138.012v-1.27M105.41 136.743l-.12.181M105.29 136.924l-.122.12M105.168 137.045l-.12.06"/></g><path fill="none" d="M109.22 148.59h-7.62" style="fill:#840000;fill-opacity:0;stroke:#840000;stroke-width:.1524;stroke-linecap:round;stroke-linejoin:round;stroke-opacity:1" transform="translate(-67.962 -63.01)"/><g class="stroked-text" style="fill:#a90000;fill-opacity:0;stroke:#a90000;stroke-width:.1524;stroke-linecap:round;stroke-linejoin:round;stroke-opacity:1" transform="translate(-67.962 -63.01)"><path fill="none" d="m105.047 147.024.06-.061M105.108 146.963l.12-.06M105.229 146.903h.302M105.531 146.903l.12.06M105.652 146.963l.06.06M105.712 147.024l.06.12M105.773 147.144v.121M105.773 147.265l-.06.182M105.712 147.447l-.725.725M104.987 148.173h.786"/></g><path fill="none" d="M114.3 148.59h7.62" style="fill:#840000;fill-opacity:0;stroke:#840000;stroke-width:.1524;stroke-linecap:round;stroke-linejoin:round;stroke-opacity:1" transform="translate(-67.962 -63.01)"/><g class="stroked-text" style="fill:#a90000;fill-opacity:0;stroke:#a90000;stroke-width:.1524;stroke-linecap:round;stroke-linejoin:round;stroke-opacity:1" transform="translate(-67.962 -63.01)"><path fill="none" d="M117.687 146.903h.786M118.473 146.903l-.424.483M118.05 147.386h.181M118.231 147.386l.12.06M118.352 147.447l.06.06M118.412 147.507l.06.121M118.473 147.628v.303M118.473 147.93l-.06.122M118.412 148.052l-.06.06M118.352 148.112l-.121.06M118.231 148.173h-.363M117.868 148.173l-.12-.06M117.747 148.112l-.06-.06"/></g><path fill="none" d="M114.3 138.43h7.62" style="fill:#840000;fill-opacity:0;stroke:#840000;stroke-width:.1524;stroke-linecap:round;stroke-linejoin:round;stroke-opacity:1" transform="translate(-67.962 -63.01)"/><g class="stroked-text" style="fill:#a90000;fill-opacity:0;stroke:#a90000;stroke-width:.1524;stroke-linecap:round;stroke-linejoin:round;stroke-opacity:1" transform="translate(-67.962 -63.01)"><path fill="none" d="M118.352 137.166v.846M118.05 136.682l-.303.907M117.747 137.59h.786"/></g><g style="fill:#006464;fill-opacity:0;stroke:#006464;stroke-width:.1524;stroke-linecap:round;stroke-linejoin:round;stroke-opacity:1"><g class="stroked-text" transform="translate(-67.962 -63.01)"><path fill="none" d="M110.792 131.39h.726M111.155 132.66v-1.27M112.183 131.39h.121M112.304 131.39l.121.06M112.425 131.45l.06.06M112.486 131.51l.06.121M112.546 131.631l.06.242M112.607 131.873v.303M112.607 132.176l-.06.242M112.546 132.418l-.06.12M112.486 132.539l-.06.06M112.425 132.6l-.12.06M112.304 132.66h-.12M112.183 132.66l-.12-.06M112.062 132.6l-.06-.061M112.002 132.539l-.06-.121M111.941 132.418l-.06-.242M111.881 132.176v-.303M111.881 131.873l.06-.242M111.941 131.631l.06-.12M112.002 131.51l.06-.06M112.062 131.45l.121-.06"/></g><g class="stroked-text" transform="translate(-67.962 -63.01)"><path fill="none" d="M106.77 135.2v-1.27M106.77 134.534h.726M107.496 135.2v-1.27M108.101 135.2v-1.27M108.101 133.93l.424.907M108.525 134.837l.423-.907M108.948 133.93v1.27M110.157 133.93h-.604M109.553 133.93l-.06.604M109.492 134.534l.06-.06M109.553 134.474l.12-.06M109.674 134.413h.302M109.976 134.413l.12.06M110.097 134.474l.06.06M110.157 134.534l.06.121M110.218 134.655v.303M110.218 134.958l-.06.12M110.157 135.079l-.06.06M110.097 135.14l-.121.06M109.976 135.2h-.302M109.674 135.2l-.121-.06M109.553 135.14l-.06-.061M111.427 135.2h-.725M111.064 135.2v-1.27M111.064 133.93l-.12.181M110.944 134.111l-.121.12M110.823 134.232l-.121.06M112.032 135.2h.242M112.274 135.2l.121-.06M112.395 135.14l.06-.061M112.455 135.079l.121-.182M112.576 134.897l.06-.242M112.637 134.655v-.484M112.637 134.171l-.06-.12M112.576 134.05l-.06-.06M112.516 133.99l-.121-.06M112.395 133.93h-.242M112.153 133.93l-.12.06M112.032 133.99l-.06.06M111.972 134.05l-.06.121M111.911 134.171v.303M111.911 134.474l.06.12M111.972 134.595l.06.06M112.032 134.655l.121.06M112.153 134.716h.242M112.395 134.716l.12-.06M112.516 134.655l.06-.06M112.576 134.595l.06-.121M113.181 134.716h.968M114.754 135.2v-1.27M114.754 133.93l.725 1.27M115.48 135.2v-1.27M116.084 135.2v-1.27M116.084 133.93h.302M116.386 133.93l.182.06M116.568 133.99l.12.121M116.689 134.111l.06.12M116.75 134.232l.06.242M116.81 134.474v.181M116.81 134.655l-.06.242M116.75 134.897l-.061.121M116.689 135.018l-.121.121M116.568 135.14l-.182.06M116.386 135.2h-.302"/></g></g></g><g style="fill:#006464;fill-opacity:0;stroke:#006464;stroke-width:.1524;stroke-linecap:round;stroke-linejoin:round;stroke-opacity:1"><g style="fill:#840000;fill-opacity:1;stroke:#840000;stroke-width:.1524;stroke-linecap:round;stroke-linejoin:round;stroke-opacity:1" transform="translate(-67.962 -63.01)"><circle cx="138.43" cy="148.59" r=".254"/><circle cx="143.51" cy="153.67" r=".254"/></g><g style="fill:#840000;fill-opacity:0;stroke:#840000;stroke-width:.254;stroke-linecap:round;stroke-linejoin:round;stroke-opacity:1"><path d="m140.97 144.78 1.27 1.27M142.24 151.13l-1.27 1.27M146.05 149.86l1.27 1.27M146.05 147.32l1.27-1.27M139.7 146.05l1.27 1.27.635-1.905zM140.97 149.86l-1.27 1.27 1.905.635zM144.78 146.05l1.27-1.27.635 1.905zM146.685 150.495l-1.905.635 1.27 1.27z" style="fill:none;fill-opacity:0;stroke:#840000;stroke-width:.254;stroke-linecap:round;stroke-linejoin:round;stroke-opacity:1" transform="translate(-67.962 -63.01)"/></g><g style="fill:#840000;fill-opacity:0;stroke:#840000;stroke-width:.1524;stroke-linecap:round;stroke-linejoin:round;stroke-opacity:1"><path d="m138.43 148.59 5.08 5.08 5.08-5.08-5.08-5.08z" style="fill:none;fill-opacity:0;stroke:#840000;stroke-width:.1524;stroke-linecap:round;stroke-linejoin:round;stroke-opacity:1" transform="translate(-67.962 -63.01)"/></g><g style="fill:#840000;fill-opacity:1;stroke:#840000;stroke-width:.1524;stroke-linecap:round;stroke-linejoin:round;stroke-opacity:1" transform="translate(-67.962 -63.01)"><circle cx="143.51" cy="143.51" r=".254"/><circle cx="148.59" cy="148.59" r=".254"/></g><path fill="none" d="M148.59 148.59h2.54" style="fill:#840000;fill-opacity:0;stroke:#840000;stroke-width:.1524;stroke-linecap:round;stroke-linejoin:round;stroke-opacity:1" transform="translate(-67.962 -63.01)"/><g class="stroked-text" style="fill:#006464;fill-opacity:0;stroke:#006464;stroke-width:.1524;stroke-linecap:round;stroke-linejoin:round;stroke-opacity:1" transform="translate(-67.962 -63.01)"><path fill="none" d="M149.376 147.689h.968M149.86 148.173v-.968"/></g><g class="stroked-text" style="fill:#a90000;fill-opacity:0;stroke:#a90000;stroke-width:.1524;stroke-linecap:round;stroke-linejoin:round;stroke-opacity:1" transform="translate(-67.962 -63.01)"><path fill="none" d="M150.223 150.166h-.726M149.86 150.166v-1.27M149.86 148.896l-.12.182M149.74 149.078l-.122.12M149.618 149.199l-.12.06"/></g><path fill="none" d="M143.51 143.51v-2.54" style="fill:#840000;fill-opacity:0;stroke:#840000;stroke-width:.1524;stroke-linecap:round;stroke-linejoin:round;stroke-opacity:1" transform="translate(-67.962 -63.01)"/><g style="fill:#a90000;fill-opacity:0;stroke:#a90000;stroke-width:.1524;stroke-linecap:round;stroke-linejoin:round;stroke-opacity:1"><g class="stroked-text" transform="translate(-67.962 -63.01)"><path fill="none" d="m143.937 142.603-.06-.06M143.877 142.542l-.06-.12M143.816 142.421v-.302M143.816 142.119l.06-.121M143.877 141.998l.06-.06M143.937 141.938l.121-.061M144.058 141.877h.121M144.18 141.877l.18.06M144.36 141.938l.726.725M145.086 142.663v-.786"/></g></g><path fill="none" d="M143.51 153.67v2.54" style="fill:#840000;fill-opacity:0;stroke:#840000;stroke-width:.1524;stroke-linecap:round;stroke-linejoin:round;stroke-opacity:1" transform="translate(-67.962 -63.01)"/><g style="fill:#a90000;fill-opacity:0;stroke:#a90000;stroke-width:.1524;stroke-linecap:round;stroke-linejoin:round;stroke-opacity:1"><g class="stroked-text" transform="translate(-67.962 -63.01)"><path fill="none" d="M143.816 155.363v-.786M143.816 154.577l.484.423M144.3 155v-.181M144.3 154.819l.06-.121M144.36 154.698l.061-.06M144.421 154.637l.121-.06M144.542 154.577h.303M144.845 154.577l.12.06M144.965 154.637l.061.061M145.026 154.698l.06.12M145.086 154.819v.363M145.086 155.182l-.06.12M145.026 155.303l-.06.06"/></g></g><path fill="none" d="M138.43 148.59h-2.54" style="fill:#840000;fill-opacity:0;stroke:#840000;stroke-width:.1524;stroke-linecap:round;stroke-linejoin:round;stroke-opacity:1" transform="translate(-67.962 -63.01)"/><g class="stroked-text" style="fill:#006464;fill-opacity:0;stroke:#006464;stroke-width:.1524;stroke-linecap:round;stroke-linejoin:round;stroke-opacity:1" transform="translate(-67.962 -63.01)"><path fill="none" d="M136.676 147.689h.968"/></g><g class="stroked-text" style="fill:#a90000;fill-opacity:0;stroke:#a90000;stroke-width:.1524;stroke-linecap:round;stroke-linejoin:round;stroke-opacity:1" transform="translate(-67.962 -63.01)"><path fill="none" d="M137.402 149.32v.846M137.1 148.836l-.303.907M136.797 149.743h.786"/></g><g style="fill:#006464;fill-opacity:0;stroke:#006464;stroke-width:.1524;stroke-linecap:round;stroke-linejoin:round;stroke-opacity:1"><g class="stroked-text" transform="translate(-67.962 -63.01)"><path fill="none" d="M154.003 145.36v-1.27M154.003 144.09h.302M154.305 144.09l.181.06M154.486 144.15l.121.121M154.607 144.271l.06.12M154.668 144.392l.06.242M154.728 144.634v.181M154.728 144.815l-.06.242M154.668 145.057l-.06.121M154.607 145.178l-.12.121M154.486 145.3l-.181.06M154.305 145.36h-.302M155.817 144.513v.846M155.514 144.03l-.302.906M155.212 144.936h.786"/></g><g class="stroked-text" transform="translate(-67.962 -63.01)"><path fill="none" d="m152.642 146.69-.121-.06M152.52 146.63h-.18M152.34 146.63l-.182.06M152.158 146.69l-.12.121M152.037 146.811l-.06.12M151.977 146.932l-.06.242M151.916 147.174v.181M151.916 147.355l.06.242M151.977 147.597l.06.121M152.037 147.718l.121.121M152.158 147.84l.182.06M152.34 147.9h.12M152.46 147.9l.182-.06M152.642 147.84l.06-.061M152.702 147.779v-.424M152.702 147.355h-.242M153.67 147.234l.181.06M153.851 147.295l.06.06M153.912 147.355l.06.121M153.972 147.476v.182M153.972 147.658l-.06.12M153.912 147.779l-.06.06M153.851 147.84l-.12.06M153.73 147.9h-.483M153.247 147.9v-1.27M153.247 146.63h.423M153.67 146.63l.12.06M153.79 146.69l.061.06M153.851 146.75l.06.121M153.912 146.871v.121M153.912 146.992l-.06.121M153.851 147.113l-.06.06M153.79 147.174l-.12.06M153.67 147.234h-.423M154.517 146.63v1.028M154.517 147.658l.06.12M154.577 147.779l.06.06M154.638 147.84l.12.06M154.758 147.9H155M155 147.9l.121-.06M155.121 147.84l.06-.061M155.182 147.779l.06-.121M155.242 147.658v-1.028M156.391 147.053v.846M156.089 146.57l-.302.906M155.787 147.476h.786M157.057 147.9v-1.27M157.057 146.63l.423.907M157.48 147.537l.423-.908M157.903 146.63v1.27"/></g></g></g><g style="fill:#006464;fill-opacity:0;stroke:#006464;stroke-width:.1524;stroke-linecap:round;stroke-linejoin:round;stroke-opacity:1"><g style="fill:#840000;fill-opacity:0;stroke:#840000;stroke-width:.254;stroke-linecap:round;stroke-linejoin:round;stroke-opacity:1"><path d="M130.81 110.49v2.54" style="fill:none;fill-opacity:0;stroke:#840000;stroke-width:.254;stroke-linecap:round;stroke-linejoin:round;stroke-opacity:1" transform="translate(-67.962 -63.01)"/></g><g style="fill:#840000;fill-opacity:0;stroke:#840000;stroke-width:.1524;stroke-linecap:round;stroke-linejoin:round;stroke-opacity:1"><path d="M133.35 111.76h-2.54" style="fill:none;fill-opacity:0;stroke:#840000;stroke-width:.1524;stroke-linecap:round;stroke-linejoin:round;stroke-opacity:1" transform="translate(-67.962 -63.01)"/></g><g style="fill:#840000;fill-opacity:0;stroke:#840000;stroke-width:.254;stroke-linecap:round;stroke-linejoin:round;stroke-opacity:1"><path d="M133.35 110.49v2.54l-2.54-1.27z" style="fill:none;fill-opacity:0;stroke:#840000;stroke-width:.254;stroke-linecap:round;stroke-linejoin:round;stroke-opacity:1" transform="translate(-67.962 -63.01)"/></g><g fill="none" style="fill:#840000;fill-opacity:0;stroke:#840000;stroke-width:.1524;stroke-linecap:round;stroke-linejoin:round;stroke-opacity:1"><path d="M62.848 48.75h-2.54M65.388 48.75h2.54"/></g><g style="fill:#006464;fill-opacity:0;stroke:#006464;stroke-width:.1524;stroke-linecap:round;stroke-linejoin:round;stroke-opacity:1"><g class="stroked-text" transform="translate(-67.962 -63.01)"><path fill="none" d="M132.66 110.238h-1.27M131.39 110.238v-.302M131.39 109.936l.06-.182M131.45 109.754l.121-.12M131.571 109.633l.12-.06M131.692 109.573l.242-.06M131.934 109.513h.181M132.115 109.513l.242.06M132.357 109.573l.121.06M132.478 109.633l.121.121M132.6 109.754l.06.182M132.66 109.936v.302M131.39 108.726v-.12M131.39 108.605l.06-.12M131.45 108.484l.06-.06M131.51 108.424l.121-.06M131.631 108.363l.242-.06M131.873 108.303h.303M132.176 108.303l.242.06M132.418 108.363l.12.06M132.539 108.424l.06.06M132.6 108.484l.06.121M132.66 108.605v.121M132.66 108.726l-.06.121M132.6 108.847l-.061.06M132.539 108.908l-.121.06M132.418 108.968l-.242.06M132.176 109.029h-.303M131.873 109.029l-.242-.06M131.631 108.968l-.12-.06M131.51 108.908l-.06-.06M131.45 108.847l-.06-.12"/></g><g class="stroked-text" transform="translate(-67.962 -63.01)"><path fill="none" d="M132.66 118.1v.726M132.66 118.463h-1.27M131.39 118.463l.181.12M131.571 118.584l.12.12M131.692 118.705l.06.12M131.39 117.314v-.121M131.39 117.193l.06-.12M131.45 117.072l.06-.06M131.51 117.012l.121-.06M131.631 116.951l.242-.06M131.873 116.89h.303M132.176 116.89l.242.061M132.418 116.951l.12.06M132.539 117.012l.06.06M132.6 117.072l.06.121M132.66 117.193v.121M132.66 117.314l-.06.12M132.6 117.435l-.061.06M132.539 117.495l-.121.06M132.418 117.556l-.242.06M132.176 117.616h-.303M131.873 117.616l-.242-.06M131.631 117.556l-.12-.06M131.51 117.495l-.06-.06M131.45 117.435l-.06-.121M132.297 116.407v-.605M132.66 116.528l-1.27-.424M131.39 116.105l1.27-.424M132.66 114.593v.725M132.66 114.955h-1.27M131.39 114.955l.181.121M131.571 115.076l.12.121M131.692 115.197l.06.121M131.39 113.806v-.12M131.39 113.685l.06-.12M131.45 113.564l.06-.06M131.51 113.504l.121-.06M131.631 113.444l.242-.061M131.873 113.383h.303M132.176 113.383l.242.06M132.418 113.444l.12.06M132.539 113.504l.06.06M132.6 113.564l.06.121M132.66 113.685v.121M132.66 113.806l-.06.121M132.6 113.927l-.061.06M132.539 113.988l-.121.06M132.418 114.048l-.242.06M132.176 114.109h-.303M131.873 114.109l-.242-.06M131.631 114.048l-.12-.06M131.51 113.988l-.06-.06M131.45 113.927l-.06-.12"/></g></g></g><g style="fill:#006464;fill-opacity:0;stroke:#006464;stroke-width:.1524;stroke-linecap:round;stroke-linejoin:round;stroke-opacity:1"><g style="fill:#840000;fill-opacity:0;stroke:#840000;stroke-width:.508;stroke-linecap:round;stroke-linejoin:round;stroke-opacity:1"><path d="M137.668 103.378h4.064" style="fill:none;fill-opacity:0;stroke:#840000;stroke-width:.508;stroke-linecap:round;stroke-linejoin:round;stroke-opacity:1" transform="translate(-67.962 -63.01)"/></g><g style="fill:#840000;fill-opacity:0;stroke:#840000;stroke-width:.1524;stroke-linecap:round;stroke-linejoin:round;stroke-opacity:1"><path d="M137.922 101.854h1.016M138.43 102.362v-1.016" style="fill:none;fill-opacity:0;stroke:#840000;stroke-width:.1524;stroke-linecap:round;stroke-linejoin:round;stroke-opacity:1" transform="translate(-67.962 -63.01)"/></g><path fill="none" d="M141.732 105.41a3.253 3.253 0 0 0-4.064 0" style="fill:#840000;fill-opacity:0;stroke:#840000;stroke-width:.508;stroke-linecap:round;stroke-linejoin:round;stroke-opacity:1" transform="translate(-67.962 -63.01)"/><g fill="none" style="fill:#840000;fill-opacity:0;stroke:#840000;stroke-width:.1524;stroke-linecap:round;stroke-linejoin:round;stroke-opacity:1"><path d="M71.738 40.114V37.32M71.738 41.638v3.302"/></g><g style="fill:#006464;fill-opacity:0;stroke:#006464;stroke-width:.1524;stroke-linecap:round;stroke-linejoin:round;stroke-opacity:1"><g class="stroked-text" transform="translate(-67.962 -63.01)"><path fill="none" d="m144.65 102.694-.061.06M144.589 102.754l-.182.06M144.407 102.814h-.12M144.286 102.814l-.181-.06M144.105 102.754l-.121-.121M143.984 102.633l-.06-.121M143.923 102.512l-.06-.242M143.863 102.27v-.181M143.863 102.089l.06-.242M143.923 101.847l.061-.121M143.984 101.726l.121-.121M144.105 101.605l.181-.06M144.286 101.544h.121M144.407 101.544l.182.06M144.589 101.605l.06.06M145.859 102.814h-.726M145.496 102.814v-1.27M145.496 101.544l-.121.182M145.375 101.726l-.121.12M145.254 101.847l-.12.06"/></g><g class="stroked-text" transform="translate(-67.962 -63.01)"><path fill="none" d="M144.589 105.354h-.726M144.226 105.354v-1.27M144.226 104.084l-.121.182M144.105 104.266l-.121.12M143.984 104.387l-.12.06M145.375 104.084h.12M145.496 104.084l.12.06M145.617 104.145l.06.06M145.677 104.205l.06.121M145.738 104.326l.06.242M145.798 104.568v.303M145.798 104.87l-.06.242M145.738 105.112l-.06.122M145.677 105.234l-.06.06M145.617 105.294l-.121.06M145.496 105.354h-.121M145.375 105.354l-.121-.06M145.254 105.294l-.06-.06M145.194 105.234l-.061-.121M145.133 105.112l-.06-.241M145.073 104.87v-.302M145.073 104.568l.06-.242M145.133 104.326l.06-.12M145.194 104.205l.06-.06M145.254 104.145l.12-.06M146.584 104.084h.121M146.705 104.084l.121.06M146.826 104.145l.06.06M146.887 104.205l.06.121M146.947 104.326l.06.242M147.008 104.568v.303M147.008 104.87l-.06.242M146.947 105.112l-.06.122M146.887 105.234l-.06.06M146.826 105.294l-.12.06M146.705 105.354h-.12M146.584 105.354l-.12-.06M146.464 105.294l-.061-.06M146.403 105.234l-.06-.121M146.343 105.112l-.06-.241M146.282 104.87v-.302M146.282 104.568l.06-.242M146.343 104.326l.06-.12M146.403 104.205l.06-.06M146.464 104.145l.12-.06M147.794 104.084h.12M147.915 104.084l.12.06M148.036 104.145l.06.06M148.096 104.205l.06.121M148.157 104.326l.06.242M148.217 104.568v.303M148.217 104.87l-.06.242M148.157 105.112l-.06.122M148.096 105.234l-.06.06M148.036 105.294l-.121.06M147.915 105.354h-.121M147.794 105.354l-.121-.06M147.673 105.294l-.06-.06M147.613 105.234l-.061-.121M147.552 105.112l-.06-.241M147.492 104.87v-.302M147.492 104.568l.06-.242M147.552 104.326l.06-.12M147.613 104.205l.06-.06M147.673 104.145l.12-.06M149.306 104.508v.846M148.762 104.508v.665M148.762 105.173l.06.121M148.822 105.294l.121.06M148.943 105.354h.181M149.124 105.354l.121-.06M149.245 105.294l.06-.06M150.334 104.69h-.424M149.91 105.354v-1.27M149.91 104.084h.605"/></g></g></g><g style="fill:#006464;fill-opacity:0;stroke:#006464;stroke-width:.1524;stroke-linecap:round;stroke-linejoin:round;stroke-opacity:1"><g style="fill:#840000;fill-opacity:0;stroke:#840000;stroke-width:.508;stroke-linecap:round;stroke-linejoin:round;stroke-opacity:1"><path d="M137.668 88.138h4.064" style="fill:none;fill-opacity:0;stroke:#840000;stroke-width:.508;stroke-linecap:round;stroke-linejoin:round;stroke-opacity:1" transform="translate(-67.962 -63.01)"/></g><g style="fill:#840000;fill-opacity:0;stroke:#840000;stroke-width:.1524;stroke-linecap:round;stroke-linejoin:round;stroke-opacity:1"><path d="M137.922 86.614h1.016M138.43 87.122v-1.016" style="fill:none;fill-opacity:0;stroke:#840000;stroke-width:.1524;stroke-linecap:round;stroke-linejoin:round;stroke-opacity:1" transform="translate(-67.962 -63.01)"/></g><path fill="none" d="M141.732 90.17a3.253 3.253 0 0 0-4.064 0" style="fill:#840000;fill-opacity:0;stroke:#840000;stroke-width:.508;stroke-linecap:round;stroke-linejoin:round;stroke-opacity:1" transform="translate(-67.962 -63.01)"/><g fill="none" style="fill:#840000;fill-opacity:0;stroke:#840000;stroke-width:.1524;stroke-linecap:round;stroke-linejoin:round;stroke-opacity:1"><path d="M71.738 24.874V22.08M71.738 26.398V29.7"/></g><g style="fill:#006464;fill-opacity:0;stroke:#006464;stroke-width:.1524;stroke-linecap:round;stroke-linejoin:round;stroke-opacity:1"><g class="stroked-text" transform="translate(-67.962 -63.01)"><path fill="none" d="m144.65 87.454-.061.06M144.589 87.514l-.182.06M144.407 87.574h-.12M144.286 87.574l-.181-.06M144.105 87.514l-.121-.121M143.984 87.393l-.06-.121M143.923 87.272l-.06-.242M143.863 87.03v-.181M143.863 86.849l.06-.242M143.923 86.607l.061-.121M143.984 86.486l.121-.121M144.105 86.365l.181-.06M144.286 86.304h.121M144.407 86.304l.182.06M144.589 86.365l.06.06M145.435 86.304h.121M145.556 86.304l.121.06M145.677 86.365l.06.06M145.738 86.425l.06.121M145.798 86.546l.06.242M145.859 86.788v.303M145.859 87.09l-.06.242M145.798 87.332l-.06.122M145.738 87.454l-.06.06M145.677 87.514l-.12.06M145.556 87.574h-.12M145.435 87.574l-.12-.06M145.315 87.514l-.061-.06M145.254 87.454l-.06-.121M145.194 87.332l-.06-.241M145.133 87.09v-.302M145.133 86.788l.06-.242M145.194 86.546l.06-.12M145.254 86.425l.06-.06M145.315 86.365l.12-.06"/></g><g class="stroked-text" transform="translate(-67.962 -63.01)"><path fill="none" d="M144.589 90.114h-.726M144.226 90.114v-1.27M144.226 88.844l-.121.182M144.105 89.026l-.121.12M143.984 89.147l-.12.06M145.375 88.844h.12M145.496 88.844l.12.06M145.617 88.905l.06.06M145.677 88.965l.06.121M145.738 89.086l.06.242M145.798 89.328v.303M145.798 89.63l-.06.243M145.738 89.873l-.06.12M145.677 89.993l-.06.061M145.617 90.054l-.121.06M145.496 90.114h-.121M145.375 90.114l-.121-.06M145.254 90.054l-.06-.06M145.194 89.993l-.061-.12M145.133 89.873l-.06-.242M145.073 89.63v-.302M145.073 89.328l.06-.242M145.133 89.086l.06-.12M145.194 88.965l.06-.06M145.254 88.905l.12-.06M146.584 88.844h.121M146.705 88.844l.121.06M146.826 88.905l.06.06M146.887 88.965l.06.121M146.947 89.086l.06.242M147.008 89.328v.303M147.008 89.63l-.06.243M146.947 89.873l-.06.12M146.887 89.993l-.06.061M146.826 90.054l-.12.06M146.705 90.114h-.12M146.584 90.114l-.12-.06M146.464 90.054l-.061-.06M146.403 89.993l-.06-.12M146.343 89.873l-.06-.242M146.282 89.63v-.302M146.282 89.328l.06-.242M146.343 89.086l.06-.12M146.403 88.965l.06-.06M146.464 88.905l.12-.06M147.794 88.844h.12M147.915 88.844l.12.06M148.036 88.905l.06.06M148.096 88.965l.06.121M148.157 89.086l.06.242M148.217 89.328v.303M148.217 89.63l-.06.243M148.157 89.873l-.06.12M148.096 89.993l-.06.061M148.036 90.054l-.121.06M147.915 90.114h-.121M147.794 90.114l-.121-.06M147.673 90.054l-.06-.06M147.613 89.993l-.061-.12M147.552 89.873l-.06-.242M147.492 89.63v-.302M147.492 89.328l.06-.242M147.552 89.086l.06-.12M147.613 88.965l.06-.06M147.673 88.905l.12-.06M149.306 89.268v.846M148.762 89.268v.665M148.762 89.933l.06.121M148.822 90.054l.121.06M148.943 90.114h.181M149.124 90.114l.121-.06M149.245 90.054l.06-.06M150.334 89.45h-.424M149.91 90.114v-1.27M149.91 88.844h.605"/></g></g></g><g style="fill:#006464;fill-opacity:0;stroke:#006464;stroke-width:.1524;stroke-linecap:round;stroke-linejoin:round;stroke-opacity:1"><rect width="5.08" height="1.524" x="116.84" y="80.518" fill="none" rx="0" style="fill:#840000;fill-opacity:0;stroke:#840000;stroke-width:.254;stroke-linecap:round;stroke-linejoin:round;stroke-opacity:1" transform="translate(-67.962 -63.01)"/><g style="fill:#840000;fill-opacity:0;stroke:#840000;stroke-width:.1524;stroke-linecap:round;stroke-linejoin:round;stroke-opacity:1"><path d="M116.84 81.28h5.08" style="fill:none;fill-opacity:0;stroke:#840000;stroke-width:.1524;stroke-linecap:round;stroke-linejoin:round;stroke-opacity:1" transform="translate(-67.962 -63.01)"/><path fill="none" d="M48.878 18.27h-1.27M53.958 18.27h1.27"/></g><g style="fill:#006464;fill-opacity:0;stroke:#006464;stroke-width:.1524;stroke-linecap:round;stroke-linejoin:round;stroke-opacity:1"><g class="stroked-text" transform="translate(-67.962 -63.01)"><path fill="none" d="M118.957 74.844h-.424M118.533 75.51v-1.27M118.533 74.24h.605M119.864 74.24h.12M119.985 74.24l.12.06M120.106 74.3l.06.06M120.166 74.36l.06.121M120.227 74.481l.06.242M120.287 74.723v.303M120.287 75.026l-.06.242M120.227 75.268l-.06.12M120.166 75.389l-.06.06M120.106 75.45l-.121.06M119.985 75.51h-.121M119.864 75.51l-.121-.06M119.743 75.45l-.06-.061M119.682 75.389l-.06-.121M119.622 75.268l-.06-.242M119.561 75.026v-.303M119.561 74.723l.06-.242M119.622 74.481l.06-.12M119.682 74.36l.06-.06M119.743 74.3l.12-.06"/></g><g class="stroked-text" transform="translate(-67.962 -63.01)"><path fill="none" d="M118.594 78.05h-.726M118.23 78.05v-1.27M118.23 76.78l-.12.181M118.11 76.961l-.121.12M117.989 77.082l-.12.06M119.38 76.78h.12M119.5 76.78l.122.06M119.622 76.84l.06.06M119.682 76.9l.06.121M119.743 77.021l.06.242M119.803 77.263v.303M119.803 77.566l-.06.242M119.743 77.808l-.06.12M119.682 77.929l-.06.06M119.622 77.99l-.121.06M119.5 78.05h-.12M119.38 78.05l-.121-.06M119.259 77.99l-.06-.061M119.198 77.929l-.06-.121M119.138 77.808l-.06-.242M119.078 77.566v-.303M119.078 77.263l.06-.242M119.138 77.021l.06-.12M119.198 76.9l.061-.06M119.259 76.84l.12-.06M120.287 77.687h.605M120.166 78.05l.423-1.27M120.59 76.78l.423 1.27"/></g></g></g><g style="fill:#006464;fill-opacity:0;stroke:#006464;stroke-width:.1524;stroke-linecap:round;stroke-linejoin:round;stroke-opacity:1"><g fill="none" style="fill:#840000;fill-opacity:0;stroke:#840000;stroke-width:.1524;stroke-linecap:round;stroke-linejoin:round;stroke-opacity:1"><path d="M40.877 15.222a.182.182 0 0 0 .253-.127M40.877 15.222a.254.254 0 0 0-.254.254M41.512 15.222a.254.254 0 0 0-.254.254M40.623 15.476a.254.254 0 0 0 .254.254M41.258 15.476a.568.568 0 0 0 .254.635M41.766 15.476a.254.254 0 0 0-.254-.254M41.512 15.73a.254.254 0 0 0 .254-.254"/></g><rect width="5.08" height="2.032" x="104.14" y="80.264" fill="none" rx="0" style="fill:#840000;fill-opacity:0;stroke:#840000;stroke-width:.254;stroke-linecap:round;stroke-linejoin:round;stroke-opacity:1" transform="translate(-67.962 -63.01)"/><g style="fill:#840000;fill-opacity:0;stroke:#840000;stroke-width:.1524;stroke-linecap:round;stroke-linejoin:round;stroke-opacity:1"><path d="M108.839 78.74h.635M109.22 79.502h-1.016l-3.048 3.556h-1.016" style="fill:none;fill-opacity:0;stroke:#840000;stroke-width:.1524;stroke-linecap:round;stroke-linejoin:round;stroke-opacity:1" transform="translate(-67.962 -63.01)"/></g><g style="fill:#840000;fill-opacity:1;stroke:#840000;stroke-width:.1524;stroke-linecap:round;stroke-linejoin:round;stroke-opacity:1"><path d="M102.997 78.74h2.286l-.762-.254v.508l.762-.254h-.254M105.283 79.502h-2.286l.762-.254v.508l-.762-.254h.254" style="fill:#840000;fill-opacity:1;fill-rule:evenodd;stroke:#840000;stroke-width:.1524;stroke-linecap:round;stroke-linejoin:round;stroke-opacity:1" transform="translate(-67.962 -63.01)"/></g><g fill="none" style="fill:#840000;fill-opacity:0;stroke:#840000;stroke-width:.1524;stroke-linecap:round;stroke-linejoin:round;stroke-opacity:1"><path d="M41.258 18.27h1.27M36.178 18.27h-1.27"/></g><g style="fill:#006464;fill-opacity:0;stroke:#006464;stroke-width:.1524;stroke-linecap:round;stroke-linejoin:round;stroke-opacity:1"><g class="stroked-text" transform="translate(-67.962 -63.01)"><path fill="none" d="M104.73 71.7h.725M105.093 72.97V71.7M105.879 72.97V71.7M105.879 72.304h.725M106.604 72.97V71.7M107.451 71.7h.121M107.572 71.7l.12.06M107.693 71.76l.06.06M107.753 71.82l.06.121M107.814 71.941l.06.242M107.874 72.183v.303M107.874 72.486l-.06.242M107.814 72.728l-.06.12M107.753 72.849l-.06.06M107.693 72.91l-.121.06M107.572 72.97h-.121M107.451 72.97l-.12-.06M107.33 72.91l-.06-.061M107.27 72.849l-.06-.121M107.21 72.728l-.061-.242M107.149 72.486v-.303M107.149 72.183l.06-.242M107.21 71.941l.06-.12M107.27 71.82l.06-.06M107.33 71.76l.121-.06"/></g><g class="stroked-text" transform="translate(-67.962 -63.01)"><path fill="none" d="M99.226 74.24h.726M99.59 75.51v-1.27M100.375 75.51v-1.27M100.92 75.51v-.666M100.92 74.844l-.06-.12M100.86 74.723l-.122-.06M100.738 74.663h-.181M100.557 74.663l-.121.06M100.436 74.723l-.06.06M102.008 75.45l-.12.06M101.887 75.51h-.242M101.645 75.51l-.12-.06M101.524 75.45l-.06-.122M101.464 75.328v-.484M101.464 74.844l.06-.12M101.524 74.723l.121-.06M101.645 74.663h.242M101.887 74.663l.121.06M102.008 74.723l.06.121M102.069 74.844v.121M102.069 74.965l-.605.121M102.613 75.51v-.847M102.613 74.905l.06-.121M102.673 74.784l.06-.06M102.734 74.723l.12-.06M102.855 74.663h.12M103.4 75.51v-.847M103.4 74.784l.06-.06M103.46 74.723l.12-.06M103.58 74.663h.182M103.762 74.663l.12.06M103.883 74.723l.06.121M103.943 74.844v.666M103.943 74.844l.06-.12M104.004 74.723l.12-.06M104.125 74.663h.181M104.306 74.663l.121.06M104.427 74.723l.06.121M104.488 74.844v.666M105.092 75.51v-.847M105.092 74.24l-.06.06M105.032 74.3l.06.06M105.092 74.36l.06-.06M105.153 74.3l-.06-.06M105.092 74.24v.12M105.637 75.45l.12.06M105.758 75.51H106M106 75.51l.12-.06M106.12 75.45l.061-.122M106.181 75.328v-.06M106.181 75.268l-.06-.121M106.12 75.147l-.12-.06M106 75.086h-.182M105.818 75.086l-.12-.06M105.697 75.026l-.06-.121M105.637 74.905v-.06M105.637 74.844l.06-.12M105.697 74.723l.121-.06M105.818 74.663H106M106 74.663l.12.06M106.544 74.663h.484M106.725 74.24v1.088M106.725 75.328l.06.121M106.786 75.45l.12.06M106.907 75.51h.12M107.632 75.51l-.12-.06M107.511 75.45l-.06-.061M107.451 75.389l-.06-.121M107.39 75.268v-.363M107.39 74.905l.061-.121M107.451 74.784l.06-.06M107.511 74.723l.122-.06M107.632 74.663h.182M107.814 74.663l.12.06M107.935 74.723l.06.06M107.995 74.784l.06.12M108.056 74.905v.363M108.056 75.268l-.06.12M107.995 75.389l-.06.06M107.935 75.45l-.121.06M107.814 75.51h-.181M108.6 75.51v-.847M108.6 74.905l.06-.121M108.66 74.784l.061-.06M108.721 74.723l.12-.06M108.842 74.663h.12M109.084 75.63h.967M110.354 75.51v-1.27M110.354 74.24l.726 1.27M111.08 75.51v-1.27M111.503 74.24h.726M111.866 75.51v-1.27M113.378 75.389l-.06.06M113.317 75.45l-.181.06M113.136 75.51h-.121M113.015 75.51l-.182-.06M112.833 75.45l-.12-.122M112.712 75.328l-.06-.12M112.652 75.207l-.06-.242M112.591 74.965v-.181M112.591 74.784l.06-.242M112.652 74.542l.06-.121M112.712 74.421l.121-.121M112.833 74.3l.182-.06M113.015 74.24h.12M113.136 74.24l.181.06M113.317 74.3l.06.06"/></g></g></g><g style="fill:#006464;fill-opacity:0;stroke:#006464;stroke-width:.1524;stroke-linecap:round;stroke-linejoin:round;stroke-opacity:1"><g style="fill:#840000;fill-opacity:0;stroke:#840000;stroke-width:.254;stroke-linecap:round;stroke-linejoin:round;stroke-opacity:1"><path d="M119.38 71.374V67.31" style="fill:none;fill-opacity:0;stroke:#840000;stroke-width:.254;stroke-linecap:round;stroke-linejoin:round;stroke-opacity:1" transform="translate(-67.962 -63.01)"/></g><g style="fill:#840000;fill-opacity:1;stroke:#840000;stroke-width:.1524;stroke-linecap:round;stroke-linejoin:round;stroke-opacity:1"><path d="m119.38 72.39-.508-1.778h1.016z" style="fill:#840000;fill-opacity:1;fill-rule:evenodd;stroke:#840000;stroke-width:.1524;stroke-linecap:round;stroke-linejoin:round;stroke-opacity:1" transform="translate(-67.962 -63.01)"/></g></g><g style="fill:#840000;fill-opacity:1;stroke:#840000;stroke-width:.1524;stroke-linecap:round;stroke-linejoin:round;stroke-opacity:1"><g style="fill:#840000;fill-opacity:0;stroke:#840000;stroke-width:.254;stroke-linecap:round;stroke-linejoin:round;stroke-opacity:1"><path d="M133.35 82.55v-2.54" style="fill:none;fill-opacity:0;stroke:#840000;stroke-width:.254;stroke-linecap:round;stroke-linejoin:round;stroke-opacity:1" transform="translate(-67.962 -63.01)"/></g><g style="fill:#840000;fill-opacity:0;stroke:#840000;stroke-width:.1524;stroke-linecap:round;stroke-linejoin:round;stroke-opacity:1"><path d="M130.81 81.28h2.54" style="fill:none;fill-opacity:0;stroke:#840000;stroke-width:.1524;stroke-linecap:round;stroke-linejoin:round;stroke-opacity:1" transform="translate(-67.962 -63.01)"/></g><g style="fill:#840000;fill-opacity:0;stroke:#840000;stroke-width:.254;stroke-linecap:round;stroke-linejoin:round;stroke-opacity:1"><path d="M130.81 82.55v-2.54l2.54 1.27z" style="fill:none;fill-opacity:0;stroke:#840000;stroke-width:.254;stroke-linecap:round;stroke-linejoin:round;stroke-opacity:1" transform="translate(-67.962 -63.01)"/></g><g fill="none" style="fill:#840000;fill-opacity:0;stroke:#840000;stroke-width:.1524;stroke-linecap:round;stroke-linejoin:round;stroke-opacity:1"><path d="M65.388 18.27h2.54M62.848 18.27h-2.54"/></g><g style="fill:#006464;fill-opacity:0;stroke:#006464;stroke-width:.1524;stroke-linecap:round;stroke-linejoin:round;stroke-opacity:1"><g class="stroked-text" transform="translate(-67.962 -63.01)"><path fill="none" d="M132.66 84.838h-1.27M131.39 84.838v-.302M131.39 84.536l.06-.182M131.45 84.354l.121-.12M131.571 84.233l.12-.06M131.692 84.173l.242-.06M131.934 84.112h.181M132.115 84.112l.242.06M132.357 84.173l.121.06M132.478 84.233l.121.121M132.6 84.354l.06.182M132.66 84.536v.302M132.66 82.903v.726M132.66 83.266h-1.27M131.39 83.266l.181.12M131.571 83.387l.12.12M131.692 83.508l.06.12"/></g><g class="stroked-text" transform="translate(-67.962 -63.01)"><path fill="none" d="M132.66 78.73v.726M132.66 79.093h-1.27M131.39 79.093l.181.12M131.571 79.214l.12.12M131.692 79.335l.06.12M131.39 77.944v-.121M131.39 77.823l.06-.12M131.45 77.702l.06-.06M131.51 77.642l.121-.06M131.631 77.581l.242-.06M131.873 77.52h.303M132.176 77.52l.242.061M132.418 77.581l.12.06M132.539 77.642l.06.06M132.6 77.702l.06.121M132.66 77.823v.121M132.66 77.944l-.06.12M132.6 78.065l-.061.06M132.539 78.125l-.121.06M132.418 78.186l-.242.06M132.176 78.246h-.303M131.873 78.246l-.242-.06M131.631 78.186l-.12-.06M131.51 78.125l-.06-.06M131.45 78.065l-.06-.121M132.297 77.037v-.605M132.66 77.158l-1.27-.424M131.39 76.734l1.27-.423M132.66 75.222v.726M132.66 75.585h-1.27M131.39 75.585l.181.121M131.571 75.706l.12.121M131.692 75.827l.06.121M131.39 74.436v-.12M131.39 74.315l.06-.12M131.45 74.195l.06-.061M131.51 74.134l.121-.06M131.631 74.073l.242-.06M131.873 74.013h.303M132.176 74.013l.242.06M132.418 74.073l.12.061M132.539 74.134l.06.06M132.6 74.195l.06.12M132.66 74.315v.121M132.66 74.436l-.06.121M132.6 74.557l-.061.06M132.539 74.618l-.121.06M132.418 74.678l-.242.06M132.176 74.739h-.303M131.873 74.739l-.242-.06M131.631 74.678l-.12-.06M131.51 74.618l-.06-.06M131.45 74.557l-.06-.12"/></g></g></g><g class="stroked-text" style="fill:#0f0f0f;fill-opacity:0;stroke:#0f0f0f;stroke-width:.1524;stroke-linecap:round;stroke-linejoin:round;stroke-opacity:1" transform="translate(-67.962 -63.01)"><path fill="none" d="M122.988 148.077h-.726M122.625 148.077v-1.27M122.625 146.807l-.121.182M122.504 146.989l-.121.12M122.383 147.11l-.12.06M123.472 146.928l.06-.06M123.532 146.868l.121-.06M123.653 146.807h.302M123.955 146.807l.121.06M124.076 146.868l.06.06M124.137 146.928l.06.121M124.197 147.05v.12M124.197 147.17l-.06.182M124.137 147.351l-.726.726M123.411 148.077h.786M124.742 147.956l.06.06M124.802 148.017l-.06.06M124.742 148.077l-.06-.06M124.681 148.017l.06-.06M124.742 147.956v.121M125.89 146.807h-.241M125.649 146.807l-.121.06M125.528 146.868l-.06.06M125.467 146.928l-.12.182M125.346 147.11l-.06.241M125.286 147.351v.484M125.286 147.835l.06.121M125.346 147.956l.06.06M125.407 148.017l.12.06M125.528 148.077h.242M125.77 148.077l.12-.06M125.89 148.017l.061-.06M125.951 147.956l.06-.12M126.012 147.835v-.302M126.012 147.533l-.06-.121M125.951 147.412l-.06-.06M125.89 147.351l-.12-.06M125.77 147.291h-.242M125.528 147.291l-.121.06M125.407 147.351l-.06.061M125.346 147.412l-.06.12M126.374 146.807l.424 1.27M126.798 148.077l.423-1.27M127.584 147.714h.605M127.463 148.077l.423-1.27M127.886 146.807l.424 1.27M129.459 147.956l-.06.06M129.398 148.017l-.181.06M129.217 148.077h-.121M129.096 148.077l-.182-.06M128.915 148.017l-.121-.121M128.793 147.896l-.06-.121M128.733 147.775l-.06-.242M128.673 147.533v-.181M128.673 147.351l.06-.241M128.733 147.11l.06-.121M128.793 146.989l.121-.121M128.915 146.868l.18-.06M129.096 146.807h.12M129.217 146.807l.181.06M129.398 146.868l.06.06M129.7 148.198h.968M131.394 147.412l.181.06M131.575 147.472l.06.06M131.636 147.533l.06.12M131.696 147.654v.181M131.696 147.835l-.06.121M131.636 147.956l-.06.06M131.575 148.017l-.12.06M131.454 148.077h-.483M130.97 148.077v-1.27M130.97 146.807h.424M131.394 146.807l.12.06M131.515 146.868l.06.06M131.575 146.928l.06.121M131.636 147.05v.12M131.636 147.17l-.06.121M131.575 147.291l-.06.06M131.515 147.351l-.121.061M131.394 147.412h-.423"/></g><g class="stroked-text" style="fill:#0f0f0f;fill-opacity:0;stroke:#0f0f0f;stroke-width:.1524;stroke-linecap:round;stroke-linejoin:round;stroke-opacity:1" transform="translate(-67.962 -63.01)"><path fill="none" d="M86.097 80.767h-.604M85.493 80.767v-1.27M86.52 80.767v-1.27M86.944 79.497l.423 1.27M87.367 80.767l.424-1.27M88.214 80.102h.423M88.819 80.767h-.605M88.214 80.767v-1.27M88.214 79.497h.605"/></g><g class="stroked-text" style="fill:#0f0f0f;fill-opacity:0;stroke:#0f0f0f;stroke-width:.1524;stroke-linecap:round;stroke-linejoin:round;stroke-opacity:1" transform="translate(-67.962 -63.01)"><path fill="none" d="M85.493 83.307v-1.27M85.493 82.037l.725 1.27M86.218 83.307v-1.27M86.823 82.642h.423M87.428 83.307h-.605M86.823 83.307v-1.27M86.823 82.037h.605M87.972 82.037v1.028M87.972 83.065l.06.121M88.032 83.186l.061.06M88.093 83.247l.12.06M88.214 83.307h.242M88.456 83.307l.12-.06M88.577 83.247l.06-.06M88.637 83.186l.06-.12M88.698 83.065v-1.028M89.121 82.037h.726M89.484 83.307v-1.27M90.996 83.307l-.423-.605M90.27 83.307v-1.27M90.27 82.037h.484M90.754 82.037l.12.06M90.875 82.098l.06.06M90.935 82.158l.06.121M90.996 82.28v.18M90.996 82.46l-.06.122M90.935 82.582l-.06.06M90.875 82.642l-.121.06M90.754 82.703h-.484M91.48 82.944h.604M91.359 83.307l.423-1.27M91.782 82.037l.423 1.27M93.234 83.307h-.605M92.629 83.307v-1.27"/></g><g class="stroked-text" style="fill:#0f0f0f;fill-opacity:0;stroke:#0f0f0f;stroke-width:.1524;stroke-linecap:round;stroke-linejoin:round;stroke-opacity:1" transform="translate(-67.962 -63.01)"><path fill="none" d="M156.613 80.283h.967M157.096 80.767V79.8M158.185 80.767v-1.27M158.185 80.102h.726M158.91 80.767v-1.27M159.334 79.497l.423 1.27M159.757 80.767l.424-1.27"/></g><g class="stroked-text" style="fill:#0f0f0f;fill-opacity:0;stroke:#0f0f0f;stroke-width:.1524;stroke-linecap:round;stroke-linejoin:round;stroke-opacity:1" transform="translate(-67.962 -63.01)"><path fill="none" d="M122.988 137.917h-.726M122.625 137.917v-1.27M122.625 136.647l-.121.182M122.504 136.829l-.121.12M122.383 136.95l-.12.06M123.472 136.768l.06-.06M123.532 136.708l.121-.06M123.653 136.647h.302M123.955 136.647l.121.06M124.076 136.708l.06.06M124.137 136.768l.06.121M124.197 136.89v.12M124.197 137.01l-.06.182M124.137 137.191l-.726.726M123.411 137.917h.786M124.742 137.796l.06.06M124.802 137.857l-.06.06M124.742 137.917l-.06-.06M124.681 137.857l.06-.06M124.742 137.796v.121M125.89 136.647h-.241M125.649 136.647l-.121.06M125.528 136.708l-.06.06M125.467 136.768l-.12.182M125.346 136.95l-.06.242M125.286 137.191v.484M125.286 137.675l.06.121M125.346 137.796l.06.06M125.407 137.857l.12.06M125.528 137.917h.242M125.77 137.917l.12-.06M125.89 137.857l.061-.06M125.951 137.796l.06-.12M126.012 137.675v-.302M126.012 137.373l-.06-.121M125.951 137.252l-.06-.06M125.89 137.191l-.12-.06M125.77 137.131h-.242M125.528 137.131l-.121.06M125.407 137.191l-.06.061M125.346 137.252l-.06.12M126.374 136.647l.424 1.27M126.798 137.917l.423-1.27M127.584 137.554h.605M127.463 137.917l.423-1.27M127.886 136.647l.424 1.27M129.459 137.796l-.06.06M129.398 137.857l-.181.06M129.217 137.917h-.121M129.096 137.917l-.182-.06M128.915 137.857l-.121-.121M128.793 137.736l-.06-.121M128.733 137.615l-.06-.242M128.673 137.373v-.182M128.673 137.191l.06-.241M128.733 136.95l.06-.121M128.793 136.829l.121-.121M128.915 136.708l.18-.06M129.096 136.647h.12M129.217 136.647l.181.06M129.398 136.708l.06.06M129.7 138.038h.968M130.91 137.554h.605M130.79 137.917l.423-1.27M131.213 136.647l.423 1.27"/></g><g class="stroked-text" style="fill:#0f0f0f;fill-opacity:0;stroke:#0f0f0f;stroke-width:.1524;stroke-linecap:round;stroke-linejoin:round;stroke-opacity:1" transform="translate(-67.962 -63.01)"><path fill="none" d="M164.837 132.837h-.604M164.232 132.837v-1.27M165.08 131.567l.422 1.27M165.502 132.837l.424-1.27M167.014 131.628l-.12-.06M166.893 131.567h-.18M166.712 131.567l-.181.06M166.53 131.628l-.12.12M166.41 131.749l-.06.12M166.35 131.87l-.061.241M166.289 132.112v.18M166.289 132.293l.06.242M166.35 132.535l.06.12M166.41 132.656l.12.12M166.53 132.777l.182.06M166.712 132.837h.121M166.833 132.837l.181-.06M167.014 132.777l.06-.06M167.075 132.716v-.423M167.075 132.293h-.242M167.62 132.837v-1.27M167.62 131.567l.725 1.27M168.345 132.837v-1.27M168.95 132.837v-1.27M168.95 131.567h.302M169.252 131.567l.182.06M169.434 131.628l.12.12M169.554 131.749l.061.12M169.615 131.87l.06.241M169.675 132.112v.18M169.675 132.293l-.06.242M169.615 132.535l-.06.12M169.554 132.656l-.12.12M169.434 132.777l-.182.06M169.252 132.837h-.302"/></g><g class="stroked-text" style="fill:#0f0f0f;fill-opacity:0;stroke:#0f0f0f;stroke-width:.1524;stroke-linecap:round;stroke-linejoin:round;stroke-opacity:1" transform="translate(-67.962 -63.01)"><path fill="none" d="M164.232 129.813h.968M164.716 130.297v-.967M166.47 130.297h-.725M166.107 130.297v-1.27M166.107 129.027l-.12.182M165.986 129.209l-.12.12M165.865 129.33l-.12.06M166.954 129.148l.06-.06M167.014 129.088l.121-.06M167.135 129.027h.303M167.438 129.027l.12.06M167.559 129.088l.06.06M167.62 129.148l.06.121M167.68 129.27v.12M167.68 129.39l-.06.182M167.62 129.571l-.726.726M166.893 130.297h.787M168.224 130.176l.06.06M168.284 130.237l-.06.06M168.224 130.297l-.06-.06M168.163 130.237l.06-.06M168.224 130.176v.121M169.373 129.027h-.242M169.131 129.027l-.12.06M169.01 129.088l-.06.06M168.95 129.148l-.121.182M168.829 129.33l-.06.241M168.768 129.571v.484M168.768 130.055l.06.121M168.829 130.176l.06.06M168.89 130.237l.12.06M169.01 130.297h.242M169.252 130.297l.121-.06M169.373 130.237l.06-.06M169.434 130.176l.06-.12M169.494 130.055v-.302M169.494 129.753l-.06-.121M169.434 129.632l-.061-.06M169.373 129.571l-.12-.06M169.252 129.511h-.242M169.01 129.511l-.12.06M168.89 129.571l-.061.061M168.829 129.632l-.06.12M169.857 129.027l.423 1.27M170.28 130.297l.424-1.27M171.127 130.297v-1.27M171.127 129.027h.302M171.43 129.027l.18.06M171.61 129.088l.122.12M171.732 129.209l.06.12M171.792 129.33l.06.241M171.852 129.571v.182M171.852 129.753l-.06.242M171.792 129.995l-.06.12M171.732 130.116l-.121.12M171.61 130.237l-.18.06M171.43 130.297h-.303M173.123 130.176l-.06.06M173.062 130.237l-.181.06M172.88 130.297h-.12M172.76 130.297l-.182-.06M172.578 130.237l-.12-.121M172.457 130.116l-.06-.121M172.397 129.995l-.06-.242M172.336 129.753v-.181M172.336 129.571l.06-.241M172.397 129.33l.06-.121M172.457 129.209l.121-.121M172.578 129.088l.182-.06M172.76 129.027h.12M172.88 129.027l.182.06M173.062 129.088l.06.06"/></g><g class="stroked-text" style="fill:#0f0f0f;fill-opacity:0;stroke:#0f0f0f;stroke-width:.1524;stroke-linecap:round;stroke-linejoin:round;stroke-opacity:1" transform="translate(-67.962 -63.01)"><path fill="none" d="M156.613 83.307v-1.27M156.613 82.642h.725M157.338 83.307v-1.27M157.762 82.037l.423 1.27M158.185 83.307l.423-1.27M159.697 82.098l-.121-.06M159.576 82.037h-.182M159.394 82.037l-.18.06M159.213 82.098l-.12.12M159.092 82.219l-.06.12M159.032 82.34l-.06.242M158.971 82.582v.18M158.971 82.763l.06.242M159.032 83.005l.06.12M159.092 83.126l.121.12M159.213 83.247l.182.06M159.394 83.307h.121M159.515 83.307l.182-.06M159.697 83.247l.06-.06M159.757 83.186v-.423M159.757 82.763h-.242M160.302 83.307v-1.27M160.302 82.037l.725 1.27M161.027 83.307v-1.27M161.632 83.307v-1.27M161.632 82.037h.303M161.935 82.037l.18.06M162.116 82.098l.12.12M162.237 82.219l.06.12M162.297 82.34l.06.242M162.358 82.582v.18M162.358 82.763l-.06.242M162.297 83.005l-.06.12M162.237 83.126l-.121.12M162.116 83.247l-.182.06M161.935 83.307h-.303"/></g><g class="stroked-text" style="fill:#0000c2;fill-opacity:0;stroke:#0000c2;stroke-width:.1524;stroke-linecap:round;stroke-linejoin:round;stroke-opacity:1" transform="translate(-67.962 -63.01)"><path fill="none" d="m117.908 63.147-.121-.06M117.787 63.087h-.182M117.605 63.087l-.181.06M117.424 63.147l-.121.121M117.303 63.268l-.06.12M117.243 63.389l-.06.242M117.182 63.63v.182M117.182 63.812l.06.242M117.243 64.054l.06.121M117.303 64.175l.121.121M117.424 64.296l.181.06M117.605 64.356h.121M117.726 64.356l.182-.06M117.908 64.296l.06-.06M117.968 64.236v-.424M117.968 63.812h-.242M119.117 64.356h-.605M118.513 64.356v-1.27M119.48 63.994h.605M119.36 64.356l.423-1.27M119.782 63.087l.424 1.27M120.569 64.296l.181.06M120.75 64.356h.303M121.053 64.356l.12-.06M121.174 64.296l.06-.06M121.234 64.236l.06-.121M121.294 64.115v-.121M121.294 63.994l-.06-.121M121.234 63.873l-.06-.06M121.174 63.812l-.121-.06M121.053 63.752l-.242-.06M120.81 63.691l-.12-.06M120.69 63.63l-.06-.06M120.63 63.57l-.061-.12M120.569 63.45v-.122M120.569 63.328l.06-.12M120.63 63.208l.06-.061M120.69 63.147l.12-.06M120.81 63.087h.303M121.113 63.087l.181.06M121.778 64.296l.182.06M121.96 64.356h.302M122.262 64.356l.121-.06M122.383 64.296l.06-.06M122.444 64.236l.06-.121M122.504 64.115v-.121M122.504 63.994l-.06-.121M122.444 63.873l-.061-.06M122.383 63.812l-.12-.06M122.262 63.752l-.242-.06M122.02 63.691l-.12-.06M121.9 63.63l-.061-.06M121.839 63.57l-.06-.12M121.778 63.45v-.122M121.778 63.328l.06-.12M121.839 63.208l.06-.061M121.9 63.147l.12-.06M122.02 63.087h.303M122.323 63.087l.181.06"/></g><g class="stroked-text" style="fill:#0000c2;fill-opacity:0;stroke:#0000c2;stroke-width:.1524;stroke-linecap:round;stroke-linejoin:round;stroke-opacity:1" transform="translate(-67.962 -63.01)"><path fill="none" d="M99.704 158.337h.242M99.946 158.337l.121.06M100.067 158.397l.121.121M100.188 158.518l.06.242M100.249 158.76v.423M100.249 159.183l-.06.242M100.188 159.425l-.12.121M100.067 159.546l-.12.06M99.946 159.607h-.242M99.704 159.607l-.12-.06M99.584 159.546l-.122-.12M99.463 159.425l-.06-.242M99.402 159.183v-.423M99.402 158.76l.06-.242M99.463 158.518l.12-.121M99.584 158.397l.12-.06M101.216 158.941h-.423M100.793 159.607v-1.27M100.793 158.337h.605M102.305 158.941h-.423M101.882 159.607v-1.27M101.882 158.337h.604M103.394 158.941l.181.06M103.575 159.002l.06.06M103.635 159.062l.06.121M103.696 159.183v.182M103.696 159.365l-.06.12M103.635 159.486l-.06.06M103.575 159.546l-.121.06M103.454 159.607h-.484M102.97 159.607v-1.27M102.97 158.337h.424M103.394 158.337l.12.06M103.514 158.397l.061.06M103.575 158.458l.06.12M103.635 158.578v.121M103.635 158.7l-.06.12M103.575 158.82l-.06.06M103.514 158.88l-.12.061M103.394 158.941h-.424M104.482 158.337h.242M104.724 158.337l.121.06M104.845 158.397l.12.121M104.966 158.518l.06.242M105.026 158.76v.423M105.026 159.183l-.06.242M104.966 159.425l-.121.121M104.845 159.546l-.121.06M104.724 159.607h-.242M104.482 159.607l-.12-.06M104.361 159.546l-.12-.12M104.24 159.425l-.06-.242M104.18 159.183v-.423M104.18 158.76l.06-.242M104.24 158.518l.121-.121M104.361 158.397l.121-.06M105.51 159.244h.605M105.39 159.607l.423-1.27M105.813 158.337l.423 1.27M107.385 159.607l-.423-.605M106.66 159.607v-1.27M106.66 158.337h.483M107.143 158.337l.121.06M107.264 158.397l.06.06M107.325 158.458l.06.12M107.385 158.578v.182M107.385 158.76l-.06.12M107.325 158.88l-.06.061M107.264 158.941l-.12.06M107.143 159.002h-.484M107.93 159.607v-1.27M107.93 158.337h.302M108.232 158.337l.181.06M108.413 158.397l.121.121M108.534 158.518l.06.12M108.595 158.639l.06.242M108.655 158.88v.182M108.655 159.062l-.06.242M108.595 159.304l-.06.121M108.534 159.425l-.12.121M108.413 159.546l-.181.06M108.232 159.607h-.303M109.986 158.337h.725M110.348 159.607v-1.27M111.86 159.607l-.423-.605M111.135 159.607v-1.27M111.135 158.337h.483M111.618 158.337l.121.06M111.74 158.397l.06.06M111.8 158.458l.06.12M111.86 158.578v.182M111.86 158.76l-.06.12M111.8 158.88l-.06.061M111.74 158.941l-.122.06M111.618 159.002h-.483M112.344 159.244h.605M112.223 159.607l.423-1.27M112.646 158.337l.424 1.27M113.493 159.607v-1.27M113.493 158.337l.726 1.27M114.219 159.607v-1.27M114.763 159.546l.182.06M114.945 159.607h.302M115.247 159.607l.12-.06M115.368 159.546l.06-.06M115.428 159.486l.06-.121M115.489 159.365v-.121M115.489 159.244l-.06-.121M115.428 159.123l-.06-.06M115.368 159.062l-.121-.06M115.247 159.002l-.242-.06M115.005 158.941l-.12-.06M114.884 158.88l-.06-.06M114.824 158.82l-.06-.12M114.763 158.7v-.122M114.763 158.578l.06-.12M114.824 158.458l.06-.061M114.884 158.397l.121-.06M115.005 158.337h.302M115.307 158.337l.182.06M116.457 158.941h-.424M116.033 159.607v-1.27M116.033 158.337h.605M117.364 158.337h.242M117.606 158.337l.12.06M117.727 158.397l.12.121M117.847 158.518l.06.242M117.908 158.76v.423M117.908 159.183l-.06.242M117.847 159.425l-.12.121M117.727 159.546l-.122.06M117.606 159.607h-.242M117.364 159.607l-.121-.06M117.243 159.546l-.121-.12M117.122 159.425l-.06-.242M117.061 159.183v-.423M117.061 158.76l.06-.242M117.122 158.518l.12-.121M117.243 158.397l.12-.06M119.178 159.607l-.423-.605M118.452 159.607v-1.27M118.452 158.337h.484M118.936 158.337l.121.06M119.057 158.397l.06.06M119.118 158.458l.06.12M119.178 158.578v.182M119.178 158.76l-.06.12M119.118 158.88l-.061.061M119.057 158.941l-.121.06M118.936 159.002h-.484M119.722 159.607v-1.27M119.722 158.337l.424.907M120.146 159.244l.423-.908M120.569 158.337v1.27M121.174 158.941h.423M121.778 159.607h-.604M121.174 159.607v-1.27M121.174 158.337h.604M123.048 159.607l-.423-.605M122.323 159.607v-1.27M122.323 158.337h.483M122.806 158.337l.121.06M122.927 158.397l.06.06M122.988 158.458l.06.12M123.048 158.578v.182M123.048 158.76l-.06.12M122.988 158.88l-.06.061M122.927 158.941l-.12.06M122.806 159.002h-.483"/></g><g fill="none" style="fill:#009600;fill-opacity:0;stroke:#009600;stroke-width:.1524;stroke-linecap:round;stroke-linejoin:round;stroke-opacity:1"><path d="M32.368 33.51v-12.7M29.828 20.81v64.77M27.288 75.42h6.35M27.288 18.27v57.15M29.828 85.58h3.81M83.168 85.58h10.16M75.548 95.74h-13.97M93.328 67.8v17.78M65.388 70.34h40.64M75.548 75.42v2.54M61.578 85.58h-7.62M61.578 95.74V85.58M106.028 67.8h-12.7M67.928 18.27h3.81M86.978 20.81h7.62M60.308 48.75h-2.54M86.978 48.75h-15.24M67.928 48.75h3.81M71.738 29.7v3.81M71.738 33.51h-39.37M71.738 33.51v3.81M57.768 48.75V18.27M42.528 18.27h5.08M55.228 18.27h2.54M71.738 18.27v3.81M71.738 18.27h22.86M27.288 18.27h7.62M86.978 20.81v27.94M29.828 20.81h2.54M15.858 20.81h13.97M15.858 18.27h11.43M57.768 18.27h2.54M53.958 75.42h21.59M65.388 85.58V70.34M65.388 85.58h2.54M71.738 48.75v-3.81M75.548 93.2v2.54"/></g><g style="fill:#009600;fill-opacity:1;stroke:#009600;stroke-width:.1524;stroke-linecap:round;stroke-linejoin:round;stroke-opacity:1" transform="translate(-67.962 -63.01)"><circle cx="139.7" cy="81.28" r=".457"/><circle cx="125.73" cy="81.28" r=".457"/><circle cx="97.79" cy="83.82" r=".457"/><circle cx="139.7" cy="111.76" r=".457"/><circle cx="139.7" cy="96.52" r=".457"/><circle cx="95.25" cy="81.28" r=".457"/></g></svg>