<svg xmlns="http://www.w3.org/2000/svg" xml:space="preserve" width="210mm" height="32mm" viewBox="0 0 210 32">
  <defs>
    <clipPath id="a" clipPathUnits="userSpaceOnUse">
      <rect width="32" height="32" ry="5" style="fill:#000;stroke-width:1.58127"/>
    </clipPath>
  </defs>
  <path d="M62.810439 2.07683139v-.43607222h3.55748722v.43607222zm3.43043865 0v-.43607222h3.55748826v.43607222zm57.55511186 0v-.43607222h3.55749447v.43607222zm3.43043555 0v-.43607222h3.93865052v.43607222zm3.81160195 0v-.43607222h3.93864018v.43607222zm3.8115916 0v-.43607222h3.55748412v.43607222zm11.81595157 0v-.43607222h3.55748412v.43607222zm3.43043555 0v-.43607222h3.93865052v.43607222zm3.81160195 0v-.43607222h3.93864017v.43607222zm3.8115916 0v-.43607222h3.93865052v.43607222zm3.81160195 0v-.43607222h3.93865053v.43607222zm3.81158126 0v-.43607222h3.55749447v.43607222zM59.44670447 8.841884l-.43198066-.17798865 2.71893769-5.23583334.4256272.19578755Zm7.62319459 0-.43198066-.17798865 2.71893769-5.23583334.4256272.19578755zm3.36373246.465737v-.43607222h3.55748722v.43607221zm3.43043865 0v-.43607222h3.93864742v.43607221zm3.81159885 0v-.43607222h3.55748722v.43607221zm11.81594639 0v-.43607222h3.55748722v.43607221zm3.43043865 0v-.43607222h3.93864742v.43607221zm3.81159885 0v-.43607222h3.55748722v.43607221zm23.69860207-.465737-.43198376-.17798865 2.7189408-5.23583334.42561994.19578755zm7.17533648.465737v-.43607222h3.55748412v.43607221zm3.43043555 0v-.43607222h3.55748412v.43607221zm8.02023327-5.68377144.4256303-.19578755 2.71893045 5.23583334-.43197342.17798865zm4.82802155 2.53040554q0 .61999389.1492857 1.07089854.15246242.44793809.45421053.81874782.30175846.37080973.755969.74458593l-.279511.272916q-.51456843-.3915751-.88302791-.80391548-.3652724-.41234047-.56220906-.9196081-.19374959-.50726774-.19374959-1.18362471 0-.67635688.19374959-1.18362462.19693666-.50726773.56220906-.9196081.36845948-.41234038.88302791-.80391548l.279511.272916q-.34304563.28478178-.60032985.56066425-.25409714.272916-.42244322.57549668-.16834608.30258078-.25410748.66745748-.08257433.3648768-.08257433.83061379zm2.77928835 3.1533659v-.43607222h3.17632806v.43607221zm4.25945902-.465737-.43197341-.17798865 2.71893045-5.23583334.4256303.19578755zm7.62319356 0-.43198376-.17798865 2.7189408-5.23583334.42563029.19578755zm7.6231832 0-.4319734-.17798865 2.71893044-5.23583334.4256303.19578755zm3.36375523.465737v-.43607222h3.55748412v.43607221zm3.43043555 0v-.43607222h3.93864017v.43607221zm3.8115916 0v-.43607222h3.55748412v.43607221zm11.81594122 0v-.43607222h3.55748412v.43607221zm3.4304459 0v-.43607222h3.93865052v.43607221zm3.81160195 0v-.43607222h3.93864017v.43607221zm3.8115916 0v-.43607222h3.55748412v.43607221zM39.9408573 16.53841069v-.4360725h3.55748825v.4360725zm3.43043761 0v-.4360725h3.55748826v.4360725zm12.26381278-.46573718-.43198066-.17798807 2.71893769-5.23583402.42562823.19578823zm7.62319355 0-.43198065-.17798807 2.71893665-5.23583402.42562823.19578823zm7.17533028.46573718v-.4360725h3.55748722v.4360725zm3.43043865 0v-.4360725h3.55748826v.4360725zm11.85089044-1.07683187 2.12178768-4.08483949h-.57809169l-1.8962687 3.63096876-1.89944442-3.63096876h-.57491495l2.12178665 4.0848395zm7.58825261 1.07683187v-.4360725h3.1763291v.4360725zm7.63907928-5.68377104.4256272-.19578823 2.71893355 5.23583402-.43197342.17798807zm15.67837088 5.21803386-.43198377-.17798807 2.71893045-5.23583402.4256303.19578823zm7.62319355 0-.43198376-.17798807 2.7189408-5.23583402.4256303.19578823zm7.62318321 0-.43197341-.17798807 2.71893044-5.23583402.4256303.19578823zm7.6232039 0-.43198376-.17798807 2.7189408-5.23583402.42561995.19578823zm7.62318321 0-.43198376-.17798807 2.7189408-5.23583402.4256303.19578823zm7.6232039 0-.43198376-.17798807 2.71893045-5.23583402.4256303.19578823zm7.62319356 0-.43198376-.17798807 2.7189408-5.23583402.4256303.19578823zm7.17533648.46573718v-.4360725h3.55748412v.4360725zm3.43043555 0v-.4360725h3.55748412v.4360725zm11.85087492-1.07683187 2.12178768-4.08483949h-.57809272l-1.89626043 3.63096876-1.89944752-3.63096876h-.57491599l2.12178769 4.0848395zm7.5882702 1.07683187v-.4360725h3.55748412v.4360725zm3.43043555 0v-.4360725h3.55748412v.4360725zm8.02022292-5.68377104.4256303-.19578823 2.7189408 5.23583402-.43198377.17798807zM36.57712276 23.30346291l-.43198065-.17798806 2.71893665-5.23583402.42562823.19578823zm7.6231946 0-.43198066-.17798806 2.71893665-5.23583402.42562823.19578823zm3.3637335.46573719v-.4360725h3.17632909v.4360725zm4.25945902-.46573719-.43198066-.17798806 2.71893665-5.23583402.42562823.19578823zm7.62319459 0-.43198066-.17798806 2.71893769-5.23583402.4256272.19578823zm7.62319459 0-.43198066-.17798806 2.71893769-5.23583402.4256272.19578823zm3.36373246.46573719v-.4360725h3.17632806v.4360725zm4.25946006-.46573719-.43198066-.17798806 2.71893769-5.23583402.42562823.19578823zm7.62319355 0-.43198065-.17798806 2.71893665-5.23583402.42562823.19578823zm10.98692809.46573719v-.4360725h3.55748826v.4360725zm3.43043969 0v-.4360725h3.55748722v.4360725zm4.64062025-.46573719-.43198066-.17798806 2.7189408-5.23583402.42561995.19578823zm11.43478827 0-.43197342-.17798806 2.71893045-5.23583402.4256303.19578823zm7.62319355 0-.43198376-.17798806 2.7189408-5.23583402.42561994.19578823zm3.36373453.46573719v-.4360725h3.17632806v.4360725zm4.25945903-.46573719-.43198377-.17798806 2.7189408-5.23583402.4256303.19578823zm7.62319355 0-.43198376-.17798806 2.7189408-5.23583402.42561994.19578823zm7.62319356 0-.43198376-.17798806 2.71894079-5.23583402.4256303.19578823zm7.62319355 0-.43197341-.17798806 2.71893045-5.23583402.4256303.19578823zm7.62319356 0-.43198376-.17798806 2.7189408-5.23583402.42563029.19578823zm7.6231832 0-.4319734-.17798806 2.71893044-5.23583402.4256303.19578823zm3.36375523.46573719v-.4360725h3.17632806v.4360725zm4.25944868-.46573719-.43197341-.17798806 2.71893044-5.23583402.4256303.19578823zm7.62319356 0-.43198377-.17798806 2.7189408-5.23583402.4256303.19578823zm7.6231832 0-.43197341-.17798806 2.71893045-5.23583402.4256303.19578823zm7.62321425 0-.43198376-.17798806 2.71893045-5.23583402.4256303.19578823zm7.62318321 0-.43198376-.17798806 2.7189408-5.23583402.4256303.19578823zM36.1451421 25.31621846l.42562824-.19578726 2.71893665 5.23583305-.43198066.17798904zm3.7957152 5.68377104v-.43607153h3.55748825v.43607153zm3.43043761 0v-.43607153h3.93864742v.43607153zm3.81159678 0v-.43607153h3.93864742v.43607153zm3.81159678 0v-.43607153h3.55748826v.43607153zm4.64061818-.46573621-.43198065-.17798904 2.71893665-5.23583305.42562823.19578726zm3.37961716-5.21803483.42562823-.19578726 2.71893769 5.23583305-.43198066.17798904zM62.810439 30.9999895v-.43607153h3.55748825v.43607153zm3.43043658 0v-.43607153H70.179523v.43607153zm3.81159885 0v-.43607153h3.93864741v.43607153zm3.8115947 0v-.43607153h3.55748723v.43607153zm4.64062026-.46573621-.43198066-.17798904 2.71893666-5.23583305.42562823.19578726zm3.37961715-5.21803483.42562823-.19578726 2.71893666 5.23583305-.43198066.17798904zm3.79571312 5.68377104v-.43607153h3.55748723v.43607153zm3.43043866 0v-.43607153h3.93864741v.43607153zm3.8115947 0v-.43607153h3.55748723v.43607153zm4.64062026-.46573621-.43198066-.17798904 2.71893666-5.23583305.42562823.19578726zm11.4347862 0-.43197342-.17798904 2.71893045-5.23583305.4256303.19578726zm3.36373452.46573621v-.43607153h3.55749447v.43607153zm3.4304459 0v-.43607153h3.93865052v.43607153zm3.8115916 0v-.43607153h3.93865053v.43607153zm3.8115916 0v-.43607153h3.93865053v.43607153zm3.81160196 0v-.43607153h3.55749447v.43607153zm4.64062543-.46573621-.43198376-.17798904 2.71894079-5.23583305.42561995.19578726zm3.36372418.46573621v-.43607153h3.17632806v.43607153zm4.25945903-.46573621-.43198377-.17798904 2.7189408-5.23583305.4256303.19578726zm3.36374488.46573621v-.43607153h3.17632806v.43607153zm4.25944867-.46573621-.43197341-.17798904 2.71893044-5.23583305.4256303.19578726zm3.36373453.46573621v-.43607153h3.17632806v.43607153zm4.25946937-.46573621-.43198376-.17798904 2.7189408-5.23583305.42561995.19578726zm3.37960785-5.21803483.4256303-.19578726 2.71894079 5.23583305-.43198376.17798904zm3.79571829 5.68377104v-.43607153h3.55748412v.43607153zm3.43043555 0v-.43607153h3.93865052v.43607153zm3.8115916 0v-.43607153h3.93865052v.43607153zm3.8116123 0v-.43607153h3.55748412v.43607153zm4.64061508-.46573621-.43198376-.17798904 2.7189408-5.23583305.4256303.19578726zm3.36373453.46573621v-.43607153h3.17632806v.43607153zm4.25944868-.46573621-.43197341-.17798904 2.71893044-5.23583305.4256303.19578726zm7.62319356 0-.43198377-.17798904 2.7189408-5.23583305.4256303.19578726zm3.36374487.46573621v-.43607153h3.17632807v.43607153zm4.25945903-.46573621-.43198376-.17798904 2.71894079-5.23583305.4256303.19578726z" style="stroke-width:.249406;fill:var(--mid-green)"/>
  <g clip-path="url(#a)" style="shape-rendering:crispEdges">
    <image width="32" height="32" href="/favicon.svg"/>
  </g>
</svg>
