<svg xmlns="http://www.w3.org/2000/svg" shape-rendering="crispEdges" viewBox="0 -.5 64 64"><path stroke="#828282" d="M0 0h64M0 1h64M0 2h64M0 3h64M0 4h37m3 0h24M0 5h33m10 0h21M0 6h29m17 0h18M0 7h24m25 0h15M0 8h19m33 0h12M0 9h15m38 0h11M0 10h12m41 0h11M0 11h12m41 0h11M0 12h12m41 0h11M0 13h12m41 0h11M0 14h8m46 0h7M0 15h6m48 0h3M0 16h6m-6 1h6m-6 1h6m-6 1h6m-6 1h6m-6 1h6m-6 1h6m-6 1h6m-6 1h6m-6 1h6m-6 1h6m-6 1h5m-5 1h3"/><path stroke="#d5bca6" d="M37 4h3m-7 1h10M29 6h17M24 7h25M19 8h33M15 9h35m2 0h1m-41 1h33m7 0h1m-39 1h27m11 0h1m-37 1h20m16 0h1m-35 1h13m21 0h1M8 14h4m8 0h7m26 0h1M6 15h5m12 0h1m29 0h1M8 16h3m12 0h1m29 0h1m-44 1h1m12 0h1m5 0h1m23 0h1m-31 1h1m4 0h1m24 0h1m-31 1h1m4 0h1m24 0h1m-31 1h1m4 0h1m24 0h1m-30 1h1m3 0h1m24 0h1m-30 1h1m3 0h1m25 0h1m-31 1h1m3 0h1m25 0h1m-31 1h1m3 0h1m25 0h1m-43 1h2m10 0h1m3 0h1m25 0h1m-44 1h5m8 0h1m3 0h1m25 0h1m-45 1h1m2 0h5m6 0h1m3 0h1m-14 1h5m4 0h1m3 0h1m-12 1h5m3 0h1m2 0h1m-10 1h5m1 0h1m2 0h1m21 0h1m4 0h1m-35 1h2m2 0h1m2 0h1m17 0h4m5 0h1m-31 1h1m3 0h1m11 0h5m9 0h1m-31 1h1m3 0h1m7 0h4m14 0h1m-31 1h1m3 0h1m3 0h4m18 0h1m-31 1h1m4 0h3m22 0h1m-31 1h1m29 0h1m-30 1h1m28 0h1m-30 1h1m28 0h1m-30 1h1m28 0h1m-30 1h1m28 0h1m-30 1h1m28 0h1m-30 1h1m-1 1h1m-1 1h1m-1 1h1m-1 1h1m-1 1h1m-1 1h1m-1 1h1"/><path stroke="#c1a487" d="M50 9h2m-7 1h7m-39 1h1m27 0h11m-37 1h1m20 0h16m-35 1h1m13 0h15m4 0h2m-33 1h1m7 0h14m9 0h3m-32 1h2m1 0h12m14 0h3m-29 1h8m18 0h3m-29 1h5m22 0h2m-29 1h4m23 0h2m-29 1h4m23 0h2m8 0h3m-40 1h4m23 0h2m7 0h1m-36 1h3m23 0h2m6 0h1m-35 1h3m23 0h3m6 0h1m-36 1h3m23 0h3m7 0h3m-39 1h3m23 0h3m8 0h2m-39 1h3m23 0h3m8 0h2m-39 1h3m23 0h3m8 0h2m-53 1h2m12 0h3m23 0h4m7 0h2m-53 1h4m10 0h3m24 0h3m8 0h1m-51 1h4m9 0h2m24 0h3m8 0h1m-49 1h4m7 0h2m24 0h3m8 0h1m-47 1h4m5 0h2m22 0h5m8 0h1m-52 1h1m6 0h3m4 0h3m17 0h9m-44 1h1m3 0h1m4 0h1m5 0h3m12 0h13m-43 1h1m2 0h1m5 0h1m5 0h3m8 0h14M3 35h2m6 0h1m1 0h1m6 0h1m5 0h4m3 0h14M1 36h2m8 0h1m1 0h1m6 0h1m5 0h17m13 0h3M0 37h1m10 0h1m1 0h1m6 0h1m6 0h12m12 0h2m6 0h1m-49 1h1m1 0h1m13 0h8m14 0h1m10 0h1m-50 1h1m1 0h1m13 0h3m10 0h3m8 0h2m8 0h1m-51 1h1m1 0h1m22 0h4m9 0h1m11 0h1m-51 1h1m1 0h1m18 0h4m26 0h1m-52 1h1m1 0h1m16 0h2m20 0h3m8 0h1m-53 1h1m1 0h1m34 0h4m-41 1h1m1 0h1m30 0h4m-38 1h1m2 0h1m26 0h4m-34 1h1m2 0h1m22 0h4M9 47h1m3 0h1m18 0h4m27 0h1M2 48h7m4 0h1m14 0h4m28 0h4M0 49h2m11 0h1m13 0h1m29 0h4m-48 1h1m39 0h6m3 0h2m-52 1h1m36 0h7m4 0h4M7 52h5m34 0h7m9 0h2M5 53h2m36 0h5m8 0h5M4 54h1m35 0h5m9 0h8M3 55h1m32 0h5m7 0h5m3 0h3M3 56h1m29 0h5m8 0h8m9 0h1M3 57h1m25 0h5m6 0h5m3 0h3m6 0h5M3 58h1m22 0h5m7 0h9m8 0h8M3 59h1m18 0h5m5 0h5m4 0h3m5 0h5m3 0h3M4 60h1m15 0h3m7 0h9m8 0h8m7 0h2M5 61h4m13 0h3m7 0h4m5 0h5m3 0h3m4 0h5M9 62h11m5 0h4m10 0h8m7 0h8m-34 1h4m9 0h3m4 0h5m3 0h3"/><path stroke="#856d54" d="M12 11h1m-1 1h3m-3 1h5m30 0h2m-37 1h7m24 0h4m2 0h1m-39 1h1m1 0h8m17 0h5m6 0h1M6 16h2m3 0h2m2 0h8m11 0h4m11 0h1M6 17h4m1 0h1m1 0h2m2 0h6m7 0h4m15 0h1M6 18h7m2 0h2m2 0h4m6 0h1M6 19h6m1 0h2m2 0h2m2 0h2m27 0h1M6 20h7m2 0h2m2 0h2m1 0h1m27 0h1M6 21h9m2 0h2m2 0h3m26 0h1M6 22h11m2 0h2m1 0h2m26 0h1M6 23h13m2 0h3m26 0h1M6 24h15m1 0h2m26 0h1M6 25h6m2 0h10m26 0h1M6 26h5m5 0h8m26 0h1M5 27h5m8 0h6m26 0h1M5 28h4m1 0h1m9 0h4m26 0h1M5 29h4m1 0h3m9 0h3m25 0h1M5 30h4m1 0h5m9 0h1m21 0h3M7 31h2m1 0h7m7 0h1m17 0h3m-35 1h2m1 0h6m5 0h1m13 0h2m-28 1h3m1 0h4m4 0h1m9 0h2m-21 1h5m4 0h1m5 0h2m-16 1h4m4 0h1m-7 1h2m4 0h1m28 0h1M4 37h1m20 0h1m24 0h1M4 38h2m14 0h1m4 0h1m22 0h1m4 0h1M4 39h4m12 0h1m4 0h1m24 0h1M5 40h5m10 0h1m4 0h1m22 0h1M7 41h4m9 0h1m4 0h1m14 0h3M9 42h2m1 0h1m7 0h1m4 0h1m10 0h4m-28 1h1m1 0h1m5 0h1m4 0h1m6 0h4m-24 1h1m1 0h3m3 0h1m4 0h1m4 0h2m23 0h2m-43 1h5m1 0h1m4 0h1m25 0h4m-39 1h5m4 0h1m21 0h4m-33 1h4m3 0h1m17 0h4m-28 1h5m1 0h1m14 0h3m-22 1h5m10 0h4m21 0h3m-41 1h3m6 0h4m23 0h3m-37 1h1m2 0h4m24 0h4m-34 1h2m25 0h4m3 0h2m-14 1h6m8 0h2m-19 1h4m-8 1h5m8 0h2m3 0h3m-24 1h4m14 0h3m-25 1h5m7 0h2m3 0h3m9 0h1m-33 1h4m13 0h3m-24 1h5m6 0h3m3 0h3m8 0h2m3 0h3m-40 1h5m13 0h3m13 0h3m-40 1h2m3 0h1m4 0h2m4 0h3m8 0h2m3 0h3m7 0h2m-44 1h5m7 0h4m13 0h3m-30 1h6m11 0h2m3 0h3m7 0h2m4 0h2"/><path stroke="#a88b6e" d="M46 13h1m2 0h1m-9 1h2m-7 1h2m-6 1h2m16 1h1m-1 1h1m0 10h1m-1 1h1m-3 1h1m1 0h1m-7 1h1m-6 1h1m-5 1h1m-5 1h1"/><path stroke="#0c200d" d="M47 14h2m-6 1h6m-11 1h11m-15 1h15m-19 1h20m-21 1h21m-21 1h14m2 0h5m-21 1h14m2 0h5m-21 1h5m2 0h14m-21 1h5m2 0h14m-21 1h21m-21 1h15m1 0h5m-21 1h7m2 0h4m2 0h6m-21 1h9m4 0h8m-21 1h21m-21 1h21m-21 1h17m-17 1h13m-12 1h8m-8 1h4M3 41h2m-5 1h7m-7 1h9m-9 1h11M0 45h10m1 0h1M0 46h10m1 0h2M0 47h9m1 0h3m1 0h2M0 48h2m7 0h4m1 0h4M2 49h11m1 0h5M0 50h13m1 0h7M0 51h12m1 0h10M0 52h7m5 0h13M0 53h5m2 0h19M0 54h4m1 0h19M0 55h3m1 0h16M0 56h3m1 0h13M0 57h3m1 0h9M0 58h3m1 0h5m-9 1h3m1 0h2m-6 1h2"/><path stroke="#2d2d25" d="M61 14h3m-7 1h7m-10 1h10m-10 1h10m-10 1h10m-10 1h7m-7 1h6m-6 1h5m-4 1h4m-4 1h4m-4 1h4m-4 1h4m-4 1h4m-4 1h4M3 28h2m50 0h4M0 29h5m50 0h3M0 30h5m51 0h1M0 31h5m51 0h1M0 32h5m51 0h1M0 33h5m51 0h2M0 34h5m51 0h4M0 35h3m53 0h6M0 36h1m2 0h2m54 0h5M1 37h3m52 0h3m1 0h4M0 38h4m52 0h4m1 0h3M0 39h4m52 0h5m1 0h2M0 40h4m53 0h4m1 0h2M0 41h3m54 0h5m1 0h1m-7 1h6m-6 1h7m-7 1h7m-9 1h9m-13 1h13m-17 1h16m-20 1h17m-20 1h17m-21 1h17m-21 1h17m-21 1h18m-20 1h17m-19 1h16m-20 1h16m-19 1h16m-20 1h16M9 58h17M6 59h16M2 60h2m1 0h15M0 61h5m4 0h11M0 62h9m-9 1h22"/><path stroke="#9b8269" d="M12 15h1m0 1h2m-3 1h1m2 0h2m-4 1h2m2 0h2m-7 1h1m2 0h2m2 0h2m-8 1h2m2 0h2m2 0h1m-7 1h2m2 0h2m-4 1h2m2 0h1m37 0h1m-41 1h2m38 0h2m-40 1h1m37 0h3m-3 1h3m-3 1h3m-3 1h3M9 28h1m49 0h4M9 29h1m49 0h4M9 30h1m49 0h4M9 31h1m50 0h3M9 32h1m52 0h2M9 33h1m44 0h1M8 34h1m42 0h4M8 35h1m38 0h5m2 0h1M8 36h1m34 0h6m5 0h1M8 37h1m30 0h9m6 0h1M8 38h1m26 0h13m6 0h1M8 39h1m21 0h10m3 0h5m6 0h1m-28 1h9m7 0h5m6 0h1m1 0h1m-30 1h5m11 0h5m3 0h4m1 0h1m-30 1h3m10 0h12m3 0h2m-30 1h3m6 0h12m4 0h5m-30 1h3m2 0h12m4 0h7m-28 1h13m4 0h7m-24 1h9m4 0h7m-20 1h5m4 0h7m-16 1h1m4 0h8m-12 1h8m-10 1h6m-6 1h2"/><path stroke="#98e585" d="M43 20h2m-2 1h2m-11 1h2m-2 1h2m8 2h1m-9 1h2m4 0h2m-6 1h4"/><path stroke="#615140" d="M61 20h3m-4 1h4m-3 1h3m-6 7h1m-2 1h2M5 31h2m16 0h1m33 0h3M5 32h4m13 0h2m33 0h5M5 33h4m1 0h1m10 0h3m34 0h6M5 34h3m1 0h2m1 0h2m7 0h3m36 0h4M5 35h3m1 0h2m1 0h1m1 0h2m5 0h3m28 0h2m8 0h2M5 36h3m1 0h2m1 0h1m1 0h4m3 0h3m25 0h4M5 37h3m1 0h2m1 0h1m1 0h6m1 0h4m23 0h2m3 0h1M6 38h2m1 0h2m1 0h1m1 0h6m1 0h4m25 0h3M9 39h2m1 0h1m1 0h6m1 0h4m23 0h2m3 0h1M4 40h1m5 0h1m1 0h1m1 0h6m1 0h4m15 0h3m7 0h4M5 41h2m5 0h1m1 0h6m1 0h4m11 0h4m8 0h3M7 42h2m5 0h6m1 0h4m7 0h4M9 43h2m4 0h5m1 0h4m5 0h2m-15 1h3m1 0h4m-13 1h1m6 0h1m1 0h4m-11 1h2m5 0h4m-9 1h2m4 0h3m-7 1h1m5 0h1m-6 1h2m0 1h2m0 1h2m0 1h1m31 0h3m-6 1h2m5 0h1m-13 1h5m8 0h2m-18 1h2m5 0h1m8 0h2m-22 1h4m8 0h2m3 0h4m-24 1h1m5 0h1m8 0h3m5 0h1m-28 1h3m9 0h1m3 0h4m8 0h1m-27 1h1m9 0h2m5 0h1m8 0h1m-36 1h2m9 0h2m3 0h3m8 0h2m3 0h2m-36 1h4m9 0h2m5 0h1m8 0h1m5 0h1m-33 1h3m4 0h3m8 0h2m3 0h2m8 0h2m-32 1h7m8 0h1m5 0h1m5 0h1m2 0h2"/></svg>